<?xml version="1.0" encoding="UTF-8" standalone="no"?>
<!DOCTYPE svg PUBLIC "-//W3C//DTD SVG 1.1//EN" "http://www.w3.org/Graphics/SVG/1.1/DTD/svg11.dtd">
<!-- Generated by Microsoft Visio, SVG Export authzi-for-microsoft-orleans.svg Page-1 -->
<svg xmlns="http://www.w3.org/2000/svg" xmlns:xlink="http://www.w3.org/1999/xlink" xmlns:ev="http://www.w3.org/2001/xml-events"
		xmlns:v="http://schemas.microsoft.com/visio/2003/SVGExtensions/" width="11.6929in" height="8.26772in"
		viewBox="0 0 841.89 595.276" xml:space="preserve" color-interpolation-filters="sRGB" class="st46">
	<v:documentProperties v:langID="1033" v:metric="true" v:viewMarkup="false">
		<v:userDefs>
			<v:ud v:nameU="msvNoAutoConnect" v:val="VT0(1):26"/>
		</v:userDefs>
	</v:documentProperties>

	<style type="text/css">
	<![CDATA[
		.st1 {stroke:#0070c0;stroke-dasharray:0.75,1.5;stroke-linecap:round;stroke-linejoin:round;stroke-width:0.75}
		.st2 {fill:none;stroke:#0070c0;stroke-linecap:round;stroke-linejoin:round;stroke-width:0.75}
		.st3 {fill:#ffffff;stroke:#0070c0;stroke-linecap:round;stroke-linejoin:round;stroke-width:0.75}
		.st4 {fill:#0070c0}
		.st5 {stroke:#0070c0;stroke-linecap:round;stroke-linejoin:round;stroke-width:0.75}
		.st6 {fill:#002060;font-family:Segoe UI;font-size:0.833336em}
		.st7 {fill:#002060;font-family:Segoe UI Semibold;font-size:0.833336em}
		.st8 {font-size:1em}
		.st9 {fill:none;stroke:none;stroke-linecap:round;stroke-linejoin:round;stroke-width:0.75}
		.st10 {fill:#0070c0;stroke:#0070c0;stroke-linecap:butt;stroke-width:0.75}
		.st11 {stroke:#0070c0;stroke-linecap:round;stroke-linejoin:round;stroke-width:6}
		.st12 {fill:#205867;stroke:none;stroke-linecap:round;stroke-linejoin:round;stroke-width:0.75}
		.st13 {fill:#7a7a7a}
		.st14 {stroke:none;stroke-linecap:butt;stroke-width:0.75}
		.st15 {fill:#a0a1a2;stroke:none;stroke-linecap:butt;stroke-width:0.75}
		.st16 {fill:#ffffff;fill-opacity:0.2;stroke:none;stroke-linecap:butt;stroke-width:0.75}
		.st17 {fill:#59b4d9;stroke:none;stroke-linecap:butt;stroke-width:0.75}
		.st18 {fill:#b8d432;stroke:none;stroke-linecap:butt;stroke-width:0.75}
		.st19 {fill:#ffffff;fill-opacity:0.34;stroke:none;stroke-linecap:butt;stroke-width:0.75}
		.st20 {fill:#fbfbf9;fill-opacity:0.85;stroke:none;stroke-linecap:butt;stroke-width:0.75}
		.st21 {fill:#ff8c00;fill-opacity:0.85;stroke:none;stroke-linecap:butt;stroke-width:0.75}
		.st22 {fill:#1e1e1e;fill-opacity:0.85;stroke:none;stroke-linecap:butt;stroke-width:0.75}
		.st23 {fill:#dda516;fill-opacity:0.85;stroke:none;stroke-linecap:butt;stroke-width:0.75}
		.st24 {fill:#8c5f07;fill-opacity:0.85;stroke:none;stroke-linecap:butt;stroke-width:0.75}
		.st25 {fill:#e3a906;fill-opacity:0.85;stroke:none;stroke-linecap:butt;stroke-width:0.75}
		.st26 {fill:#fcd116;fill-opacity:0.85;stroke:none;stroke-linecap:butt;stroke-width:0.75}
		.st27 {fill:#ffffff;fill-opacity:0.9;stroke:none;stroke-linecap:butt;stroke-width:0.75}
		.st28 {fill:#ffffff;font-family:Segoe UI;font-size:0.833336em}
		.st29 {fill:#0072c6;fill-opacity:0.2;stroke:none;stroke-linecap:butt;stroke-width:0.75}
		.st30 {fill:#ffffff;fill-opacity:0.8;stroke:none;stroke-linecap:butt;stroke-width:0.75}
		.st31 {marker-start:url(#mrkr5-233);stroke:#0070c0;stroke-dasharray:0.75,1.5;stroke-linecap:round;stroke-linejoin:round;stroke-width:0.75}
		.st32 {fill:#0070c0;fill-opacity:1;stroke:#0070c0;stroke-opacity:1;stroke-width:0.22935779816514}
		.st33 {marker-end:url(#mrkr5-239);stroke:#0070c0;stroke-dasharray:0.75,1.5;stroke-linecap:round;stroke-linejoin:round;stroke-width:0.75}
		.st34 {fill:#002060;stroke:none;stroke-linecap:round;stroke-linejoin:round;stroke-width:0.75}
		.st35 {fill:none;stroke:#002060;stroke-dasharray:0.75,1.5;stroke-linecap:round;stroke-linejoin:round;stroke-width:0.75}
		.st36 {fill:#ffffff;stroke:none;stroke-linecap:butt;stroke-width:0.75}
		.st37 {fill:#ffffff;fill-opacity:0.7;stroke:none;stroke-linecap:butt;stroke-width:0.75}
		.st38 {fill:#ffffff;fill-opacity:0.4;stroke:none;stroke-linecap:butt;stroke-width:0.75}
		.st39 {fill:#225086;stroke:none;stroke-linecap:butt;stroke-width:0.75}
		.st40 {fill:#66ddff;stroke:none;stroke-linecap:butt;stroke-width:0.75}
		.st41 {fill:#cbf8ff;stroke:none;stroke-linecap:butt;stroke-width:0.75}
		.st42 {fill:#074793;stroke:none;stroke-linecap:butt;stroke-width:0.75}
		.st43 {fill:#0294e4;stroke:none;stroke-linecap:butt;stroke-width:0.75}
		.st44 {fill:#96bcc2;stroke:none;stroke-linecap:butt;stroke-width:0.75}
		.st45 {fill:#ffffff;font-family:Calibri;font-size:1.00001em}
		.st46 {fill:none;fill-rule:evenodd;font-size:12px;overflow:visible;stroke-linecap:square;stroke-miterlimit:3}
	]]>
	</style>

	<defs id="Markers">
		<g id="lend5">
			<path d="M 2 1 L 0 0 L 1.98117 -0.993387 C 1.67173 -0.364515 1.67301 0.372641 1.98465 1.00043 " style="stroke:none"/>
		</g>
		<marker id="mrkr5-233" class="st32" v:arrowType="5" v:arrowSize="2" v:setback="7.15" refX="7.15" orient="auto"
				markerUnits="strokeWidth" overflow="visible">
			<use xlink:href="#lend5" transform="scale(4.36) "/>
		</marker>
		<marker id="mrkr5-239" class="st32" v:arrowType="5" v:arrowSize="2" v:setback="7.63" refX="-7.63" orient="auto"
				markerUnits="strokeWidth" overflow="visible">
			<use xlink:href="#lend5" transform="scale(-4.36,-4.36) "/>
		</marker>
	</defs>
	<g v:mID="0" v:index="1" v:groupContext="foregroundPage">
		<title>Page-1</title>
		<v:pageProperties v:drawingScale="0.0393701" v:pageScale="0.0393701" v:drawingUnits="24" v:shadowOffsetX="9"
				v:shadowOffsetY="-9"/>
		<v:layer v:name="Flowchart" v:index="0"/>
		<v:layer v:name="Connector" v:index="1"/>
		<g id="shape1102-1" v:mID="1102" v:groupContext="shape" transform="translate(745.512,153.071) rotate(90)">
			<title>Sheet.1102</title>
			<path d="M0 595.28 L283.46 595.28" class="st1"/>
		</g>
		<g id="shape1045-4" v:mID="1045" v:groupContext="shape" transform="translate(941.102,153.071) rotate(90)">
			<title>Sheet.1045</title>
			<path d="M0 595.28 L357.73 595.28" class="st1"/>
		</g>
		<g id="shape597-7" v:mID="597" v:groupContext="shape" transform="translate(403.654,-77.9528)">
			<title>Sheet.597</title>
			<rect x="0" y="325.984" width="262.488" height="269.291" class="st2"/>
		</g>
		<g id="group138-9" transform="translate(113.386,-94.2225)" v:mID="138" v:groupContext="group" v:layerMember="0">
			<v:userDefs>
				<v:ud v:nameU="visVersion" v:prompt="" v:val="VT0(15):26"/>
				<v:ud v:nameU="ConnGap" v:prompt="" v:val="VT0(0.00012908222537757):24"/>
			</v:userDefs>
			<title>Web Page</title>
			<desc>Web Application</desc>
			<g id="shape139-10" v:mID="139" v:groupContext="shape" v:layerMember="0" transform="translate(0,-16.0605)">
				<title>Sheet.139</title>
				<rect x="0" y="546.692" width="61.7769" height="48.5839" class="st3"/>
			</g>
			<g id="shape140-12" v:mID="140" v:groupContext="shape" v:layerMember="0" transform="translate(9.66943,-37.9899)">
				<title>Sheet.140</title>
				<v:userDefs>
					<v:ud v:nameU="SurroundingRegionColor" v:prompt="" v:val="VT0(1):26"/>
				</v:userDefs>
				<path d="M0 584.45 L2.95 584.45 L2.95 582.5 L0 582.5 L0 584.45 ZM6.71 584.45 L23.64 584.45 L23.64 582.5 L6.71 582.5
							 L6.71 584.45 ZM6.71 589.86 L23.64 589.86 L23.64 587.92 L6.71 587.92 L6.71 589.86 ZM0 589.86 L2.95 589.86
							 L2.95 587.92 L0 587.92 L0 589.86 ZM0 595.28 L2.95 595.28 L2.95 593.33 L0 593.33 L0 595.28 ZM6.71 595.28
							 L23.64 595.28 L23.64 593.33 L6.71 593.33 L6.71 595.28 Z" class="st4"/>
			</g>
			<g id="shape141-15" v:mID="141" v:groupContext="shape" v:layerMember="0" transform="translate(1.34298,-0.552467)">
				<title>Sheet.141</title>
				<path d="M0 540.2 L59.09 540.2 L59.09 532.43 L0 532.43 L0 540.2 ZM69.52 576.44 A18.2215 18.8339 -180 1 0 33.08 576.44
							 A18.2215 18.8339 -180 1 0 69.52 576.44 Z" class="st3"/>
			</g>
			<g id="shape142-17" v:mID="142" v:groupContext="shape" v:layerMember="0" transform="translate(34.4232,-0.552469)">
				<title>Sheet.142</title>
				<v:userDefs>
					<v:ud v:nameU="GrpLineWeight" v:prompt="" v:val="VT0(0.010416666666667):3"/>
				</v:userDefs>
				<path d="M1.91 584.83 L34.53 584.83" class="st5"/>
				<path d="M-0 576.44 L36.44 576.44" class="st5"/>
				<path d="M1.91 568.05 L34.53 568.05" class="st5"/>
				<path d="M28.54 576.44 A10.3141 18.8339 -180 1 0 7.91 576.44 A10.3141 18.8339 -180 1 0 28.54 576.44" class="st5"/>
				<path d="M18.22 595.28 L18.22 557.61" class="st5"/>
			</g>
			<g id="shape138-24" v:mID="138" v:groupContext="groupContent" v:layerMember="0">
				<v:textBlock v:margins="rect(4,4,4,4)" v:tabSpace="42.5197"/>
				<v:textRect cx="35.4331" cy="605.277" width="84.03" height="20.0036"/>
				<text x="-1.21" y="608.28" class="st6" v:langID="1033"><v:paragraph v:horizAlign="1"/><v:tabList/>Web Application</text>			</g>
		</g>
		<g id="group167-26" transform="translate(680.315,-84.3307)" v:mID="167" v:groupContext="group">
			<title>Sheet.167</title>
			<g id="shape85-27" v:mID="85" v:groupContext="shape" transform="translate(7.08661,-199.968)">
				<title>Sheet.85</title>
				<desc>MS SQL Server</desc>
				<v:textBlock v:margins="rect(4,4,4,4)" v:tabSpace="42.5197"/>
				<v:textRect cx="56.6929" cy="576.048" width="113.39" height="38.4553"/>
				<rect x="0" y="556.82" width="113.386" height="38.4553" class="st2"/>
				<text x="23.38" y="579.05" class="st7" v:langID="1033"><v:paragraph v:horizAlign="1"/><v:tabList/>MS SQL Server</text>			</g>
			<g id="shape156-30" v:mID="156" v:groupContext="shape" transform="translate(7.08661,-153.821)">
				<title>Sheet.156</title>
				<desc>Azure Storage</desc>
				<v:textBlock v:margins="rect(4,4,4,4)" v:tabSpace="42.5197"/>
				<v:textRect cx="56.6929" cy="576.048" width="113.39" height="38.4553"/>
				<rect x="0" y="556.82" width="113.386" height="38.4553" class="st2"/>
				<text x="24.57" y="579.05" class="st7" v:langID="1033"><v:paragraph v:horizAlign="1"/><v:tabList/>Azure Storage</text>			</g>
			<g id="shape157-33" v:mID="157" v:groupContext="shape" transform="translate(7.08661,-107.675)">
				<title>Sheet.157</title>
				<desc>Azure Cosmos DB</desc>
				<v:textBlock v:margins="rect(4,4,4,4)" v:tabSpace="42.5197"/>
				<v:textRect cx="56.6929" cy="576.048" width="113.39" height="38.4553"/>
				<rect x="0" y="556.82" width="113.386" height="38.4553" class="st2"/>
				<text x="16.42" y="579.05" class="st7" v:langID="1033"><v:paragraph v:horizAlign="1"/><v:tabList/>Azure Cosmos DB</text>			</g>
			<g id="shape158-36" v:mID="158" v:groupContext="shape" transform="translate(7.08661,-61.5285)">
				<title>Sheet.158</title>
				<desc>MS Orleans Compatible Storage</desc>
				<v:textBlock v:margins="rect(4,4,4,4)" v:tabSpace="42.5197"/>
				<v:textRect cx="56.6929" cy="576.048" width="113.39" height="38.4553"/>
				<rect x="0" y="556.82" width="113.386" height="38.4553" class="st2"/>
				<text x="30.7" y="573.05" class="st7" v:langID="1033"><v:paragraph v:horizAlign="1"/><v:tabList/>MS Orleans <tspan
							x="11.44" dy="1.2em" class="st8">Compatible Storage</tspan></text>			</g>
			<g id="shape159-40" v:mID="159" v:groupContext="shape" transform="translate(7.08661,-15.3822)">
				<title>Sheet.159</title>
				<desc>MS Orleans Compatible Storage</desc>
				<v:textBlock v:margins="rect(4,4,4,4)" v:tabSpace="42.5197"/>
				<v:textRect cx="56.6929" cy="576.048" width="113.39" height="38.4553"/>
				<rect x="0" y="556.82" width="113.386" height="38.4553" class="st2"/>
				<text x="30.7" y="573.05" class="st7" v:langID="1033"><v:paragraph v:horizAlign="1"/><v:tabList/>MS Orleans <tspan
							x="11.44" dy="1.2em" class="st8">Compatible Storage</tspan></text>			</g>
			<g id="shape160-44" v:mID="160" v:groupContext="shape">
				<title>Sheet.160</title>
				<rect x="0" y="333.78" width="127.559" height="261.496" class="st2"/>
			</g>
			<g id="shape161-46" v:mID="161" v:groupContext="shape" transform="translate(7.08661,-242.115)">
				<title>Sheet.161</title>
				<desc>Persistence</desc>
				<v:textBlock v:margins="rect(4,4,4,4)" v:tabSpace="42.5197"/>
				<v:textRect cx="56.6929" cy="587.849" width="113.39" height="14.8523"/>
				<rect x="0" y="580.423" width="113.386" height="14.8523" class="st9"/>
				<text x="31.26" y="590.85" class="st7" v:langID="1033"><v:paragraph v:horizAlign="1"/><v:tabList/>Persistence</text>			</g>
		</g>
		<g id="shape214-49" v:mID="214" v:groupContext="shape" transform="translate(46.4496,-253.742)">
			<title>Users</title>
			<v:userDefs>
				<v:ud v:nameU="msvShapeCategories" v:prompt="" v:val="VT4(Icon)"/>
				<v:ud v:nameU="visVersion" v:prompt="" v:val="VT0(15):26"/>
			</v:userDefs>
			<path d="M30.33 572.02 A4.43029 4.50118 -180 0 0 34.76 567.52 A4.43029 4.50118 -180 0 0 30.33 563.02 A4.43195 4.50286
						 -180 0 0 25.91 567.52 A4.43278 4.50371 -180 0 0 30.33 572.02 ZM30.33 560.78 A6.6395 6.74573 0 0 1 36.97
						 567.52 A6.6395 6.74573 0 0 1 30.33 574.27 A6.63922 6.74545 0 0 1 23.7 567.52 A6.63922 6.74545 0 0 1 30.33
						 560.78 ZM11.09 592.68 A7.73723 7.86103 -180 0 0 19.94 588.18 A9.73356 9.8893 -180 0 0 15.69 579.45 A32560.3
						 33081.3 -180 0 0 11.09 588.65 A16540.9 16805.6 0 0 1 6.49 579.45 A9.73464 9.89039 -180 0 0 2.24 588.18 A7.73636
						 7.86014 -180 0 0 11.09 592.68 ZM15.46 576.69 A11.6656 11.8523 0 0 1 22.16 588.18 A8.84076 8.98221 0 0 1
						 11.09 594.93 A8.84003 8.98147 0 0 1 0.02 588.18 A11.6705 11.8573 0 0 1 6.72 576.69 A7.94667 8.07382 -180
						 0 0 7.92 577.36 L11.09 583.69 L14.25 577.36 A7.82522 7.95042 -180 0 0 15.46 576.69 ZM34.71 574.01 A11.6656
						 11.8523 0 0 1 41.4 585.51 A8.84076 8.98221 0 0 1 30.33 592.26 A17.6229 17.9049 0 0 1 22.93 590.89 A6.71805
						 6.82554 -180 0 0 23.42 588.62 A15.254 15.4981 -180 0 0 30.33 590.01 A7.73723 7.86103 -180 0 0 39.19 585.51
						 A9.73125 9.88695 -180 0 0 34.94 576.78 A20823.5 21156.7 -180 0 0 30.33 585.98 A23176 23546.8 0 0 1 25.73
						 576.78 A8.82097 8.96211 -180 0 0 22.09 581.61 A12.528 12.7285 -180 0 0 20.67 579.2 A10.4126 10.5792 0 0
						 1 25.96 574.01 A7.94667 8.07382 -180 0 0 27.17 574.69 L30.33 581.01 L33.5 574.69 A7.82522 7.95042 -180 0
						 0 34.71 574.01 ZM11.09 574.69 A4.42946 4.50033 -180 0 0 15.52 570.2 A4.43029 4.50118 -180 0 0 11.09 565.7
						 A4.43195 4.50286 -180 0 0 6.66 570.2 A4.43278 4.50371 -180 0 0 11.09 574.69 ZM11.09 563.45 A6.6395 6.74573
						 0 0 1 17.73 570.2 A6.6395 6.74573 0 0 1 11.09 576.94 A6.63922 6.74545 0 0 1 4.45 570.2 A6.63922 6.74545
						 0 0 1 11.09 563.45 Z" class="st10"/>
		</g>
		<g id="shape216-51" v:mID="216" v:groupContext="shape" transform="translate(807.874,181.417) rotate(90)">
			<title>Sheet.216</title>
			<path d="M0 595.28 L374.17 595.28" class="st11"/>
		</g>
		<g id="group246-54" transform="translate(113.386,-330.236)" v:mID="246" v:groupContext="group" v:layerMember="0">
			<v:userDefs>
				<v:ud v:nameU="visVersion" v:prompt="" v:val="VT0(15):26"/>
				<v:ud v:nameU="ConnGap" v:prompt="" v:val="VT0(0.00012908222537757):24"/>
			</v:userDefs>
			<title>Web Page.246</title>
			<desc>Web SPA</desc>
			<g id="shape247-55" v:mID="247" v:groupContext="shape" v:layerMember="0" transform="translate(0,-16.0605)">
				<title>Sheet.247</title>
				<rect x="0" y="546.692" width="61.7769" height="48.5839" class="st3"/>
			</g>
			<g id="shape248-57" v:mID="248" v:groupContext="shape" v:layerMember="0" transform="translate(9.66943,-37.9899)">
				<title>Sheet.248</title>
				<v:userDefs>
					<v:ud v:nameU="SurroundingRegionColor" v:prompt="" v:val="VT0(1):26"/>
				</v:userDefs>
				<path d="M0 584.45 L2.95 584.45 L2.95 582.5 L0 582.5 L0 584.45 ZM6.71 584.45 L23.64 584.45 L23.64 582.5 L6.71 582.5
							 L6.71 584.45 ZM6.71 589.86 L23.64 589.86 L23.64 587.92 L6.71 587.92 L6.71 589.86 ZM0 589.86 L2.95 589.86
							 L2.95 587.92 L0 587.92 L0 589.86 ZM0 595.28 L2.95 595.28 L2.95 593.33 L0 593.33 L0 595.28 ZM6.71 595.28
							 L23.64 595.28 L23.64 593.33 L6.71 593.33 L6.71 595.28 Z" class="st4"/>
			</g>
			<g id="shape249-60" v:mID="249" v:groupContext="shape" v:layerMember="0" transform="translate(1.34298,-0.552467)">
				<title>Sheet.249</title>
				<path d="M0 540.2 L59.09 540.2 L59.09 532.43 L0 532.43 L0 540.2 ZM69.52 576.44 A18.2215 18.8339 -180 1 0 33.08 576.44
							 A18.2215 18.8339 -180 1 0 69.52 576.44 Z" class="st3"/>
			</g>
			<g id="shape250-62" v:mID="250" v:groupContext="shape" v:layerMember="0" transform="translate(34.4232,-0.552469)">
				<title>Sheet.250</title>
				<v:userDefs>
					<v:ud v:nameU="GrpLineWeight" v:prompt="" v:val="VT0(0.010416666666667):3"/>
				</v:userDefs>
				<path d="M1.91 584.83 L34.53 584.83" class="st5"/>
				<path d="M-0 576.44 L36.44 576.44" class="st5"/>
				<path d="M1.91 568.05 L34.53 568.05" class="st5"/>
				<path d="M28.54 576.44 A10.3141 18.8339 -180 1 0 7.91 576.44 A10.3141 18.8339 -180 1 0 28.54 576.44" class="st5"/>
				<path d="M18.22 595.28 L18.22 557.61" class="st5"/>
			</g>
			<g id="shape246-69" v:mID="246" v:groupContext="groupContent" v:layerMember="0">
				<v:textBlock v:margins="rect(4,4,4,4)" v:tabSpace="42.5197"/>
				<v:textRect cx="35.4331" cy="605.277" width="51.3" height="20.0036"/>
				<text x="15.16" y="608.28" class="st6" v:langID="1033"><v:paragraph v:horizAlign="1"/><v:tabList/>Web SPA</text>			</g>
		</g>
		<g id="group586-71" transform="translate(238.11,-280.225)" v:mID="586" v:groupContext="group">
			<title>Sheet.586</title>
			<g id="shape558-72" v:mID="558" v:groupContext="shape">
				<title>Sheet.558</title>
				<rect x="0" y="524.004" width="120.854" height="71.2711" class="st12"/>
			</g>
			<g id="group190-74" transform="translate(41.6772,-6.07424)" v:mID="190" v:groupContext="group">
				<title>Sheet.190</title>
				<g id="shape191-75" v:mID="191" v:groupContext="shape" transform="translate(6.74925,1.13687E-13)">
					<title>Sheet.191</title>
					<path d="M18 587.78 L17.09 587.78 L8.17 587.78 L7.7 587.78 C8.94 592.27 7.28 592.92 0 592.92 L0 595.28 L9.26
								 595.28 L16.01 595.28 L24.75 595.28 L24.75 592.92 C17.47 592.92 16.76 592.28 18 587.78 L18 587.78
								 Z" class="st13"/>
					<path d="M18 587.78 L17.09 587.78 L8.17 587.78 L7.7 587.78 C8.94 592.27 7.28 592.92 0 592.92 L0 595.28 L9.26
								 595.28 L16.01 595.28 L24.75 595.28 L24.75 592.92 C17.47 592.92 16.76 592.28 18 587.78"
							class="st14"/>
				</g>
				<g id="shape192-78" v:mID="192" v:groupContext="shape" transform="translate(0.00075,-6.75075)">
					<title>Sheet.192</title>
					<path d="M35.23 567.53 L2.04 567.53 C0.91 567.53 0 568.54 0 569.66 L0 593.16 C0 594.28 0.91 595.28 2.04 595.28
								 L35.23 595.28 C36.36 595.28 37.5 594.28 37.5 593.16 L37.5 569.66 C37.5 568.53 36.36 567.53 35.23
								 567.53 Z" class="st15"/>
				</g>
				<g id="shape193-80" v:mID="193" v:groupContext="shape" transform="translate(0,-6.75)">
					<title>Sheet.193</title>
					<path d="M35.26 567.53 C35.25 567.53 35.24 567.53 35.23 567.53 L2.04 567.53 C0.91 567.53 0 568.53 0 569.66 L0
								 593.16 C0 594.28 0.91 595.28 2.04 595.28 L2.83 595.28 L35.26 567.53 Z" class="st16"/>
				</g>
				<g id="shape194-82" v:mID="194" v:groupContext="shape" transform="translate(2.99925,-9.75)">
					<title>Sheet.194</title>
					<rect x="0" y="573.526" width="31.5" height="21.75" class="st17"/>
				</g>
				<g id="shape195-84" v:mID="195" v:groupContext="shape" transform="translate(6.74925,0)">
					<title>Sheet.195</title>
					<rect x="0" y="593.026" width="24.75" height="2.25" class="st15"/>
				</g>
				<g id="shape196-86" v:mID="196" v:groupContext="shape" transform="translate(18.0735,-32.3962)">
					<title>Sheet.196</title>
					<path d="M1.06 594.74 C1.06 595.04 0.83 595.28 0.53 595.28 C0.24 595.28 0 595.04 0 594.74 C0 594.45 0.24 594.21
								 0.53 594.21 C0.83 594.21 1.06 594.45 1.06 594.74 Z" class="st18"/>
				</g>
				<g id="group197-88" transform="translate(11.0047,-11.2125)" v:mID="197" v:groupContext="group">
					<title>Layer_2</title>
					<g id="shape198-89" v:mID="198" v:groupContext="shape" transform="translate(8.16225,-14.178)">
						<title>Sheet.198</title>
						<path d="M0.86 595.04 L0.48 595.28 L0.14 594.67 C0.02 594.44 0 594.24 0.09 594.04 C0.16 593.86 0.31 593.75
									 0.5 593.75 L0.55 593.76 C0.76 593.77 0.98 593.99 1.04 594.19 C1.11 594.4 1.11 594.89 0.86 595.04
									 Z" class="st19"/>
					</g>
					<g id="shape199-91" v:mID="199" v:groupContext="shape" transform="translate(3.39225,-1.81125)">
						<title>Sheet.199</title>
						<path d="M1.9 594.31 C1.9 594.29 0 591.24 0.11 590.71 C1.01 586.46 2.07 585.84 2.46 584.94 C2.85 584.04 2.63
									 583.21 3.09 583.2 C3.56 583.19 4.93 583.29 5.26 583.4 C5.59 583.51 6.06 583.85 6.33 584.58 C6.68
									 585.25 7.03 585.93 7.14 586.69 C7.15 586.76 7.18 586.83 7.23 586.88 C8.11 587.86 8.29 589.04
									 8.23 590.29 C8.21 590.61 8.17 591.08 8.13 591.24 C8.09 591.41 6.89 595.28 5.01 595.23 C3.12
									 595.18 2.12 594.48 1.9 594.31 Z" class="st20"/>
					</g>
					<g id="shape200-93" v:mID="200" v:groupContext="shape" transform="translate(10.353,-0.1305)">
						<title>Sheet.200</title>
						<path d="M5.06 591.73 C4.37 591.69 4.01 591.28 4.01 590.88 C4 590.42 4.2 589.84 3.53 589.78 C2.86 589.72
									 1.48 589.65 1.11 589.58 C0.31 589.43 0.27 589.76 0.26 589.99 C0.25 590.1 0.35 591.19 0.25 591.62
									 C0.25 591.8 0.24 591.98 0.21 592.17 C0.14 592.66 0.08 593.16 0.01 593.66 C0.01 593.9 0 594.14
									 0 594.38 C0.58 595.24 1.72 595.28 2.42 594.53 C3.08 593.86 3.88 593.4 4.72 592.99 C4.95 592.88
									 5.18 592.7 5.3 592.37 C5.43 592.03 5.31 591.74 5.06 591.73 Z" class="st21"/>
					</g>
					<g id="shape201-95" v:mID="201" v:groupContext="shape" transform="translate(2.29725,-3.219)">
						<title>Sheet.201</title>
						<path d="M3.95 594.4 C3.86 594.87 3.36 595.28 3.1 595.24 C2.94 595.15 2.5 594.57 2.4 594.43 C2.12 594 0.87
									 592.21 0.51 592.35 C0.39 592.36 0.32 592.44 0.26 592.53 C0.24 592.54 0.21 592.55 0.19 592.56
									 C0 592.16 0.01 591.76 0.22 591.38 C0.68 590.54 0.9 589.67 1.13 588.74 C1.21 588.43 1.4 588.17
									 1.6 587.92 C1.97 587.45 1.96 586.98 2.33 586.51 C2.57 586.22 2.79 585.9 2.76 585.52 C2.7 584.44
									 2.56 583.39 2.61 582.31 C2.65 581.25 3.58 580.36 4.61 579.98 C5.69 579.59 6.71 579.78 7.57 580.55
									 C8.25 581.16 8.55 581.96 8.6 582.86 C8.61 583.02 8.62 583.19 8.61 583.35 C8.53 585.04 9.24 586.41
									 10.32 587.63 C11.35 588.81 11.75 590.21 11.84 591.74 C11.87 592.13 11.74 592.5 11.58 592.86
									 C11.35 593.38 11.03 593.7 10.73 593.83 C10.44 593.97 9.27 594.06 9.5 593.29 C9.61 592.92 9.63
									 592.76 9.16 592.66 C9.2 592.35 9.25 592.03 9.26 591.72 C9.33 590.46 9.11 589.47 8.16 588.58
									 C7.87 588.31 8.14 588.26 8.13 588.02 C8.11 587.35 7.72 586.67 7.36 586 C7.33 585.88 7.27 585.77
									 7.19 585.67 C7.22 585.57 7.15 585.49 7.11 585.41 C7.16 585.19 7.25 584.99 7.21 584.76 C7.21
									 584.57 5.21 584.48 4.96 584.58 C4.86 584.55 3.79 584.5 3.79 584.52 C3.65 584.63 3.55 584.77
									 3.5 584.94 C3.46 585.1 3.72 585.44 3.75 585.49 C3.73 585.72 3.72 585.95 3.71 586.18 C3.69 586.26
									 3.67 586.34 3.64 586.42 C3.47 586.68 3.3 586.94 3.13 587.21 C2.99 587.45 2.82 587.68 2.8 587.98
									 C2.68 588.28 3.1 588.67 2.72 589.02 C2.34 589.37 1.96 591.06 1.95 591.46 C1.95 591.88 2.73 592.86
									 3.03 593.14 C3.57 593.66 4.07 593.86 3.95 594.4 Z" class="st22"/>
					</g>
					<g id="shape202-97" v:mID="202" v:groupContext="shape" transform="translate(5.874,-1.032)">
						<title>Sheet.202</title>
						<path d="M0 593.82 C0.81 594.05 3.08 594.12 4.18 593.01 C4.37 592.84 4.55 592.68 4.74 592.51 C4.74 592.69
									 4.73 592.87 4.7 593.06 C4.63 593.55 4.57 594.05 4.5 594.55 C4.5 594.79 4.49 595.03 4.49 595.28
									 C3.47 595 1.95 594.9 1.49 594.92 C1.04 594.94 0.41 595.06 0.05 595.15 L0 593.82 Z"
								class="st22"/>
					</g>
					<g id="shape203-99" v:mID="203" v:groupContext="shape" transform="translate(14.3708,-4.3995)">
						<title>Sheet.203</title>
						<path d="M0.05 595.28 C0.03 595.25 0.02 595.23 0 595.2 C0.02 595.23 0.03 595.25 0.05 595.28 Z" class="st23"/>
					</g>
					<g id="shape204-101" v:mID="204" v:groupContext="shape" transform="translate(14.0595,-5.45025)">
						<title>Sheet.204</title>
						<path d="M0.07 595.28 C0.04 595.25 0.02 595.23 0 595.21 C0.02 595.23 0.04 595.25 0.07 595.28 Z"
								class="st23"/>
					</g>
					<g id="shape205-103" v:mID="205" v:groupContext="shape" transform="translate(5.41125,-3.108)">
						<title>Sheet.205</title>
						<path d="M0 595.22 C0.01 595.24 0.02 595.26 0.03 595.28 C0.02 595.26 0.01 595.24 0 595.22 Z" class="st24"/>
					</g>
					<g id="shape206-105" v:mID="206" v:groupContext="shape" transform="translate(14.0595,-5.51175)">
						<title>Sheet.206</title>
						<path d="M0 595.27 L0 595.28 L0 595.28 L0 595.27 Z" class="st25"/>
					</g>
					<g id="shape207-107" v:mID="207" v:groupContext="shape">
						<title>Sheet.207</title>
						<path d="M5.08 591.63 C4.49 591.02 4.04 590.28 3.62 589.45 C3.41 589.01 2.74 588.66 2.49 589.35 C2.24 590.03
									 1.85 590.31 1.2 590.23 C0.73 590.16 0.28 590.53 0.48 591.13 C0.69 591.77 0.94 592.28 0.47 592.73
									 C0 593.18 0.19 593.65 0.85 593.74 C1.51 593.82 3.24 594.22 4.24 594.75 C5.24 595.28 6.04 594.28
									 6.15 593.98 C6.41 593.25 5.67 592.24 5.08 591.63 Z" class="st21"/>
					</g>
					<g id="shape208-109" v:mID="208" v:groupContext="shape" transform="translate(5.235,-10.8165)">
						<title>Sheet.208</title>
						<path d="M2.08 595.28 C1.51 595.28 1.14 594.74 0.87 594.28 C0.87 594.28 0 593.06 0.32 592.38 C0.36 592.29
									 0.44 592.13 1.33 591.58 L1.5 591.44 L1.66 591.36 L1.76 591.32 C1.88 591.28 2.02 591.24 2.15
									 591.24 L2.22 591.24 L2.33 591.27 L2.6 591.36 L4.77 592.16 L4.83 592.48 C4.88 592.75 4.82 592.98
									 4.76 593.16 L4.68 593.48 L4.5 593.55 C4.33 593.61 4.07 593.88 3.87 594.1 C3.66 594.32 3.47 594.53
									 3.27 594.66 C3.2 594.71 3.12 594.77 3.05 594.82 C2.74 595.06 2.44 595.28 2.08 595.28 Z"
								class="st22"/>
					</g>
					<g id="shape209-111" v:mID="209" v:groupContext="shape" transform="translate(5.508,-10.8712)">
						<title>Sheet.209</title>
						<path d="M3.25 592.66 C2.87 592.99 2.43 593.28 1.88 593.29 C1.86 593.31 1.86 593.31 1.88 593.29 C1.89 593.17
									 1.88 593.05 1.77 592.96 C1.69 592.88 1.67 592.77 1.7 592.68 C1.8 592.28 1.74 591.88 1.76 591.49
									 C1.65 591.46 1.42 591.54 1.39 591.55 C1.34 591.57 1.29 591.6 1.24 591.62 C1.19 591.67 1.13 591.71
									 1.08 591.76 C1.01 591.8 0.27 592.25 0.2 592.41 C0 592.83 0.64 593.84 0.74 593.96 C1.49 595.28
									 1.9 594.7 2.61 594.21 C2.98 593.97 3.48 593.22 3.9 593.06 C3.96 592.85 4.05 592.65 4 592.42
									 C3.73 592.44 3.49 592.45 3.25 592.66 Z" class="st21"/>
					</g>
					<g id="shape210-113" v:mID="210" v:groupContext="shape" transform="translate(6.95175,-14.649)">
						<title>Sheet.210</title>
						<path d="M0 595.27 C0 595.28 0 595.27 0.01 595.28 C0 595.27 0.01 595.27 0 595.27 L0 595.27 Z" class="st25"/>
					</g>
					<g id="shape211-115" v:mID="211" v:groupContext="shape" transform="translate(6.843,-12.4522)">
						<title>Sheet.211</title>
						<path d="M2.36 593.7 C2.52 593.79 2.67 593.88 2.67 594.09 C2.37 594.11 2.11 594.13 1.85 594.36 C1.43 594.72
									 0.86 595.26 0.26 595.28 C0.28 595.08 0 594.8 0.08 594.46 C0.18 594.03 0.19 593.51 0.21 593.07
									 C0.48 592.96 0.74 593.06 0.99 593.14 C1.1 593.21 1.21 593.27 1.31 593.34 C1.5 593.41 1.69 593.48
									 1.87 593.55 C2.02 593.65 2.19 593.67 2.36 593.7 Z" class="st26"/>
					</g>
				</g>
				<g id="shape212-117" v:mID="212" v:groupContext="shape" transform="translate(17.2492,-25.8345)">
					<title>Sheet.212</title>
					<rect x="0" y="594.526" width="0.75" height="0.75" class="st27"/>
				</g>
				<g id="shape213-119" v:mID="213" v:groupContext="shape" transform="translate(19.4992,-25.8345)">
					<title>Sheet.213</title>
					<rect x="0" y="594.526" width="0.75" height="0.75" class="st27"/>
				</g>
			</g>
			<g id="shape215-121" v:mID="215" v:groupContext="shape" transform="translate(8.50394,-43.4089)">
				<title>Sheet.215</title>
				<desc>ASP.NET Core API 1</desc>
				<v:textBlock v:margins="rect(4,4,4,4)" v:tabSpace="42.5197"/>
				<v:textRect cx="51.9232" cy="585.276" width="103.85" height="20"/>
				<rect x="0" y="575.276" width="103.846" height="20" class="st9"/>
				<text x="8.73" y="588.28" class="st28" v:langID="1033"><v:paragraph v:horizAlign="1"/><v:tabList/>ASP.NET Core API 1</text>			</g>
		</g>
		<g id="group587-124" transform="translate(238.11,-203.69)" v:mID="587" v:groupContext="group">
			<title>Sheet.587</title>
			<g id="shape560-125" v:mID="560" v:groupContext="shape">
				<title>Sheet.560</title>
				<rect x="0" y="524.004" width="120.854" height="71.2711" class="st12"/>
			</g>
			<g id="group535-127" transform="translate(41.6772,-6.07424)" v:mID="535" v:groupContext="group">
				<title>Sheet.535</title>
				<g id="shape536-128" v:mID="536" v:groupContext="shape" transform="translate(6.74925,1.13687E-13)">
					<title>Sheet.536</title>
					<path d="M18 587.78 L17.09 587.78 L8.17 587.78 L7.7 587.78 C8.94 592.27 7.28 592.92 0 592.92 L0 595.28 L9.26
								 595.28 L16.01 595.28 L24.75 595.28 L24.75 592.92 C17.47 592.92 16.76 592.28 18 587.78 L18 587.78
								 Z" class="st13"/>
					<path d="M18 587.78 L17.09 587.78 L8.17 587.78 L7.7 587.78 C8.94 592.27 7.28 592.92 0 592.92 L0 595.28 L9.26
								 595.28 L16.01 595.28 L24.75 595.28 L24.75 592.92 C17.47 592.92 16.76 592.28 18 587.78"
							class="st14"/>
				</g>
				<g id="shape537-131" v:mID="537" v:groupContext="shape" transform="translate(0.00075,-6.75075)">
					<title>Sheet.537</title>
					<path d="M35.23 567.53 L2.04 567.53 C0.91 567.53 0 568.54 0 569.66 L0 593.16 C0 594.28 0.91 595.28 2.04 595.28
								 L35.23 595.28 C36.36 595.28 37.5 594.28 37.5 593.16 L37.5 569.66 C37.5 568.53 36.36 567.53 35.23
								 567.53 Z" class="st15"/>
				</g>
				<g id="shape538-133" v:mID="538" v:groupContext="shape" transform="translate(0,-6.75)">
					<title>Sheet.538</title>
					<path d="M35.26 567.53 C35.25 567.53 35.24 567.53 35.23 567.53 L2.04 567.53 C0.91 567.53 0 568.53 0 569.66 L0
								 593.16 C0 594.28 0.91 595.28 2.04 595.28 L2.83 595.28 L35.26 567.53 Z" class="st16"/>
				</g>
				<g id="shape539-135" v:mID="539" v:groupContext="shape" transform="translate(2.99925,-9.75)">
					<title>Sheet.539</title>
					<rect x="0" y="573.526" width="31.5" height="21.75" class="st17"/>
				</g>
				<g id="shape540-137" v:mID="540" v:groupContext="shape" transform="translate(6.74925,0)">
					<title>Sheet.540</title>
					<rect x="0" y="593.026" width="24.75" height="2.25" class="st15"/>
				</g>
				<g id="shape541-139" v:mID="541" v:groupContext="shape" transform="translate(18.0735,-32.3963)">
					<title>Sheet.541</title>
					<path d="M1.06 594.74 C1.06 595.04 0.83 595.28 0.53 595.28 C0.24 595.28 0 595.04 0 594.74 C0 594.45 0.24 594.21
								 0.53 594.21 C0.83 594.21 1.06 594.45 1.06 594.74 Z" class="st18"/>
				</g>
				<g id="shape542-141" v:mID="542" v:groupContext="shape" transform="translate(11.2492,-12.75)">
					<title>Sheet.542</title>
					<path d="M15.33 595.27 L0.62 594.09 C0.27 594.06 0 593.77 0 593.42 L0 582.13 C0 581.78 0.27 581.49 0.62 581.46
								 C0.62 581.46 15.33 580.28 15.33 580.28 C15.75 580.28 16.05 580.58 16.05 580.95 L16.05 594.6 C16.05
								 594.78 15.98 594.95 15.85 595.08 C15.73 595.21 15.56 595.28 15.38 595.28 L15.33 595.27 Z"
							class="st29"/>
				</g>
				<g id="shape543-143" v:mID="543" v:groupContext="shape" transform="translate(19.275,-20.7758)">
					<title>Sheet.543</title>
					<path d="M0 589.56 L0 595.28 L7.35 595.28 L7.35 588.97 L0 589.56 Z" class="st30"/>
				</g>
				<g id="shape544-145" v:mID="544" v:groupContext="shape" transform="translate(11.9212,-20.7758)">
					<title>Sheet.544</title>
					<path d="M0 590.16 L0 595.28 L6.3 595.28 L6.3 589.65 L0 590.16 Z" class="st30"/>
				</g>
				<g id="shape545-147" v:mID="545" v:groupContext="shape" transform="translate(19.275,-13.4228)">
					<title>Sheet.545</title>
					<path d="M0 594.68 L0 588.97 L7.35 588.97 L7.35 595.28 L0 594.68 Z" class="st30"/>
				</g>
				<g id="shape546-149" v:mID="546" v:groupContext="shape" transform="translate(11.9212,-14.0993)">
					<title>Sheet.546</title>
					<path d="M0 594.77 L0 589.65 L6.3 589.65 L6.3 595.28 L0 594.77 Z" class="st30"/>
				</g>
			</g>
			<g id="shape585-151" v:mID="585" v:groupContext="shape" transform="translate(8.50393,-43.4089)">
				<title>Sheet.585</title>
				<desc>ASP.NET Core API 2</desc>
				<v:textBlock v:margins="rect(4,4,4,4)" v:tabSpace="42.5197"/>
				<v:textRect cx="51.9232" cy="585.276" width="103.85" height="20"/>
				<rect x="0" y="575.276" width="103.846" height="20" class="st9"/>
				<text x="8.73" y="588.28" class="st28" v:langID="1033"><v:paragraph v:horizAlign="1"/><v:tabList/>ASP.NET Core API 2</text>			</g>
		</g>
		<g id="group589-154" transform="translate(238.11,-84.4724)" v:mID="589" v:groupContext="group">
			<title>Sheet.589</title>
			<g id="shape559-155" v:mID="559" v:groupContext="shape">
				<title>Sheet.559</title>
				<rect x="0" y="509.669" width="120.854" height="85.6063" class="st12"/>
			</g>
			<g id="group588-157" transform="translate(8.50394,-7.37008)" v:mID="588" v:groupContext="group">
				<title>Sheet.588</title>
				<g id="group390-158" transform="translate(33.1732,0)" v:mID="390" v:groupContext="group">
					<title>Sheet.390</title>
					<g id="shape391-159" v:mID="391" v:groupContext="shape" transform="translate(6.74925,1.13687E-13)">
						<title>Sheet.391</title>
						<path d="M18 587.78 L17.09 587.78 L8.17 587.78 L7.7 587.78 C8.94 592.27 7.28 592.92 0 592.92 L0 595.28 L9.26
									 595.28 L16.01 595.28 L24.75 595.28 L24.75 592.92 C17.47 592.92 16.76 592.28 18 587.78 L18 587.78
									 Z" class="st13"/>
						<path d="M18 587.78 L17.09 587.78 L8.17 587.78 L7.7 587.78 C8.94 592.27 7.28 592.92 0 592.92 L0 595.28 L9.26
									 595.28 L16.01 595.28 L24.75 595.28 L24.75 592.92 C17.47 592.92 16.76 592.28 18 587.78"
								class="st14"/>
					</g>
					<g id="shape392-162" v:mID="392" v:groupContext="shape" transform="translate(0.00075,-6.75075)">
						<title>Sheet.392</title>
						<path d="M35.23 567.53 L2.04 567.53 C0.91 567.53 0 568.54 0 569.66 L0 593.16 C0 594.28 0.91 595.28 2.04 595.28
									 L35.23 595.28 C36.36 595.28 37.5 594.28 37.5 593.16 L37.5 569.66 C37.5 568.53 36.36 567.53 35.23
									 567.53 Z" class="st15"/>
					</g>
					<g id="shape393-164" v:mID="393" v:groupContext="shape" transform="translate(0,-6.75)">
						<title>Sheet.393</title>
						<path d="M35.26 567.53 C35.25 567.53 35.24 567.53 35.23 567.53 L2.04 567.53 C0.91 567.53 0 568.53 0 569.66
									 L0 593.16 C0 594.28 0.91 595.28 2.04 595.28 L2.83 595.28 L35.26 567.53 Z" class="st16"/>
					</g>
					<g id="shape394-166" v:mID="394" v:groupContext="shape" transform="translate(2.99925,-9.75)">
						<title>Sheet.394</title>
						<rect x="0" y="573.526" width="31.5" height="21.75" class="st17"/>
					</g>
					<g id="shape395-168" v:mID="395" v:groupContext="shape" transform="translate(6.74925,0)">
						<title>Sheet.395</title>
						<rect x="0" y="593.026" width="24.75" height="2.25" class="st15"/>
					</g>
					<g id="shape396-170" v:mID="396" v:groupContext="shape" transform="translate(18.0735,-32.3963)">
						<title>Sheet.396</title>
						<path d="M1.06 594.74 C1.06 595.04 0.83 595.28 0.53 595.28 C0.24 595.28 0 595.04 0 594.74 C0 594.45 0.24
									 594.21 0.53 594.21 C0.83 594.21 1.06 594.45 1.06 594.74 Z" class="st18"/>
					</g>
					<g id="group397-172" transform="translate(11.0047,-11.2125)" v:mID="397" v:groupContext="group">
						<title>Layer_2</title>
						<g id="shape398-173" v:mID="398" v:groupContext="shape" transform="translate(8.16225,-14.178)">
							<title>Sheet.398</title>
							<path d="M0.86 595.04 L0.48 595.28 L0.14 594.67 C0.02 594.44 0 594.24 0.09 594.04 C0.16 593.86 0.31 593.75
										 0.5 593.75 L0.55 593.76 C0.76 593.77 0.98 593.99 1.04 594.19 C1.11 594.4 1.11 594.89 0.86
										 595.04 Z" class="st19"/>
						</g>
						<g id="shape399-175" v:mID="399" v:groupContext="shape" transform="translate(3.39225,-1.81125)">
							<title>Sheet.399</title>
							<path d="M1.9 594.31 C1.9 594.29 0 591.24 0.11 590.71 C1.01 586.46 2.07 585.84 2.46 584.94 C2.85 584.04
										 2.63 583.21 3.09 583.2 C3.56 583.19 4.93 583.29 5.26 583.4 C5.59 583.51 6.06 583.85 6.33
										 584.58 C6.68 585.25 7.03 585.93 7.14 586.69 C7.15 586.76 7.18 586.83 7.23 586.88 C8.11 587.86
										 8.29 589.04 8.23 590.29 C8.21 590.61 8.17 591.08 8.13 591.24 C8.09 591.41 6.89 595.28 5.01
										 595.23 C3.12 595.18 2.12 594.48 1.9 594.31 Z" class="st20"/>
						</g>
						<g id="shape400-177" v:mID="400" v:groupContext="shape" transform="translate(10.353,-0.1305)">
							<title>Sheet.400</title>
							<path d="M5.06 591.73 C4.37 591.69 4.01 591.28 4.01 590.88 C4 590.42 4.2 589.84 3.53 589.78 C2.86 589.72
										 1.48 589.65 1.11 589.58 C0.31 589.43 0.27 589.76 0.26 589.99 C0.25 590.1 0.35 591.19 0.25
										 591.62 C0.25 591.8 0.24 591.98 0.21 592.17 C0.14 592.66 0.08 593.16 0.01 593.66 C0.01 593.9
										 0 594.14 0 594.38 C0.58 595.24 1.72 595.28 2.42 594.53 C3.08 593.86 3.88 593.4 4.72 592.99
										 C4.95 592.88 5.18 592.7 5.3 592.37 C5.43 592.03 5.31 591.74 5.06 591.73 Z" class="st21"/>
						</g>
						<g id="shape401-179" v:mID="401" v:groupContext="shape" transform="translate(2.29725,-3.219)">
							<title>Sheet.401</title>
							<path d="M3.95 594.4 C3.86 594.87 3.36 595.28 3.1 595.24 C2.94 595.15 2.5 594.57 2.4 594.43 C2.12 594
										 0.87 592.21 0.51 592.35 C0.39 592.36 0.32 592.44 0.26 592.53 C0.24 592.54 0.21 592.55 0.19
										 592.56 C0 592.16 0.01 591.76 0.22 591.38 C0.68 590.54 0.9 589.67 1.13 588.74 C1.21 588.43
										 1.4 588.17 1.6 587.92 C1.97 587.45 1.96 586.98 2.33 586.51 C2.57 586.22 2.79 585.9 2.76
										 585.52 C2.7 584.44 2.56 583.39 2.61 582.31 C2.65 581.25 3.58 580.36 4.61 579.98 C5.69 579.59
										 6.71 579.78 7.57 580.55 C8.25 581.16 8.55 581.96 8.6 582.86 C8.61 583.02 8.62 583.19 8.61
										 583.35 C8.53 585.04 9.24 586.41 10.32 587.63 C11.35 588.81 11.75 590.21 11.84 591.74 C11.87
										 592.13 11.74 592.5 11.58 592.86 C11.35 593.38 11.03 593.7 10.73 593.83 C10.44 593.97 9.27
										 594.06 9.5 593.29 C9.61 592.92 9.63 592.76 9.16 592.66 C9.2 592.35 9.25 592.03 9.26 591.72
										 C9.33 590.46 9.11 589.47 8.16 588.58 C7.87 588.31 8.14 588.26 8.13 588.02 C8.11 587.35 7.72
										 586.67 7.36 586 C7.33 585.88 7.27 585.77 7.19 585.67 C7.22 585.57 7.15 585.49 7.11 585.41
										 C7.16 585.19 7.25 584.99 7.21 584.76 C7.21 584.57 5.21 584.48 4.96 584.58 C4.86 584.55 3.79
										 584.5 3.79 584.52 C3.65 584.63 3.55 584.77 3.5 584.94 C3.46 585.1 3.72 585.44 3.75 585.49
										 C3.73 585.72 3.72 585.95 3.71 586.18 C3.69 586.26 3.67 586.34 3.64 586.42 C3.47 586.68 3.3
										 586.94 3.13 587.21 C2.99 587.45 2.82 587.68 2.8 587.98 C2.68 588.28 3.1 588.67 2.72 589.02
										 C2.34 589.37 1.96 591.06 1.95 591.46 C1.95 591.88 2.73 592.86 3.03 593.14 C3.57 593.66 4.07
										 593.86 3.95 594.4 Z" class="st22"/>
						</g>
						<g id="shape402-181" v:mID="402" v:groupContext="shape" transform="translate(5.874,-1.032)">
							<title>Sheet.402</title>
							<path d="M0 593.82 C0.81 594.05 3.08 594.12 4.18 593.01 C4.37 592.84 4.55 592.68 4.74 592.51 C4.74 592.69
										 4.73 592.87 4.7 593.06 C4.63 593.55 4.57 594.05 4.5 594.55 C4.5 594.79 4.49 595.03 4.49
										 595.28 C3.47 595 1.95 594.9 1.49 594.92 C1.04 594.94 0.41 595.06 0.05 595.15 L0 593.82 Z"
									class="st22"/>
						</g>
						<g id="shape403-183" v:mID="403" v:groupContext="shape" transform="translate(14.3708,-4.3995)">
							<title>Sheet.403</title>
							<path d="M0.05 595.28 C0.03 595.25 0.02 595.23 0 595.2 C0.02 595.23 0.03 595.25 0.05 595.28 Z"
									class="st23"/>
						</g>
						<g id="shape404-185" v:mID="404" v:groupContext="shape" transform="translate(14.0595,-5.45025)">
							<title>Sheet.404</title>
							<path d="M0.07 595.28 C0.04 595.25 0.02 595.23 0 595.21 C0.02 595.23 0.04 595.25 0.07 595.28 Z"
									class="st23"/>
						</g>
						<g id="shape405-187" v:mID="405" v:groupContext="shape" transform="translate(5.41125,-3.108)">
							<title>Sheet.405</title>
							<path d="M0 595.22 C0.01 595.24 0.02 595.26 0.03 595.28 C0.02 595.26 0.01 595.24 0 595.22 Z"
									class="st24"/>
						</g>
						<g id="shape406-189" v:mID="406" v:groupContext="shape" transform="translate(14.0595,-5.51175)">
							<title>Sheet.406</title>
							<path d="M0 595.27 L0 595.28 L0 595.28 L0 595.27 Z" class="st25"/>
						</g>
						<g id="shape407-191" v:mID="407" v:groupContext="shape">
							<title>Sheet.407</title>
							<path d="M5.08 591.63 C4.49 591.02 4.04 590.28 3.62 589.45 C3.41 589.01 2.74 588.66 2.49 589.35 C2.24
										 590.03 1.85 590.31 1.2 590.23 C0.73 590.16 0.28 590.53 0.48 591.13 C0.69 591.77 0.94 592.28
										 0.47 592.73 C0 593.18 0.19 593.65 0.85 593.74 C1.51 593.82 3.24 594.22 4.24 594.75 C5.24
										 595.28 6.04 594.28 6.15 593.98 C6.41 593.25 5.67 592.24 5.08 591.63 Z" class="st21"/>
						</g>
						<g id="shape408-193" v:mID="408" v:groupContext="shape" transform="translate(5.235,-10.8165)">
							<title>Sheet.408</title>
							<path d="M2.08 595.28 C1.51 595.28 1.14 594.74 0.87 594.28 C0.87 594.28 0 593.06 0.32 592.38 C0.36 592.29
										 0.44 592.13 1.33 591.58 L1.5 591.44 L1.66 591.36 L1.76 591.32 C1.88 591.28 2.02 591.24 2.15
										 591.24 L2.22 591.24 L2.33 591.27 L2.6 591.36 L4.77 592.16 L4.83 592.48 C4.88 592.75 4.82
										 592.98 4.76 593.16 L4.68 593.48 L4.5 593.55 C4.33 593.61 4.07 593.88 3.87 594.1 C3.66 594.32
										 3.47 594.53 3.27 594.66 C3.2 594.71 3.12 594.77 3.05 594.82 C2.74 595.06 2.44 595.28 2.08
										 595.28 Z" class="st22"/>
						</g>
						<g id="shape409-195" v:mID="409" v:groupContext="shape" transform="translate(5.508,-10.8712)">
							<title>Sheet.409</title>
							<path d="M3.25 592.66 C2.87 592.99 2.43 593.28 1.88 593.29 C1.86 593.31 1.86 593.31 1.88 593.29 C1.89
										 593.17 1.88 593.05 1.77 592.96 C1.69 592.88 1.67 592.77 1.7 592.68 C1.8 592.28 1.74 591.88
										 1.76 591.49 C1.65 591.46 1.42 591.54 1.39 591.55 C1.34 591.57 1.29 591.6 1.24 591.62 C1.19
										 591.67 1.13 591.71 1.08 591.76 C1.01 591.8 0.27 592.25 0.2 592.41 C0 592.83 0.64 593.84
										 0.74 593.96 C1.49 595.28 1.9 594.7 2.61 594.21 C2.98 593.97 3.48 593.22 3.9 593.06 C3.96
										 592.85 4.05 592.65 4 592.42 C3.73 592.44 3.49 592.45 3.25 592.66 Z" class="st21"/>
						</g>
						<g id="shape410-197" v:mID="410" v:groupContext="shape" transform="translate(6.95175,-14.649)">
							<title>Sheet.410</title>
							<path d="M0 595.27 C0 595.28 0 595.27 0.01 595.28 C0 595.27 0.01 595.27 0 595.27 L0 595.27 Z"
									class="st25"/>
						</g>
						<g id="shape411-199" v:mID="411" v:groupContext="shape" transform="translate(6.843,-12.4523)">
							<title>Sheet.411</title>
							<path d="M2.36 593.7 C2.52 593.79 2.67 593.88 2.67 594.09 C2.37 594.11 2.11 594.13 1.85 594.36 C1.43
										 594.72 0.86 595.26 0.26 595.28 C0.28 595.08 0 594.8 0.08 594.46 C0.18 594.03 0.19 593.51
										 0.21 593.07 C0.48 592.96 0.74 593.06 0.99 593.14 C1.1 593.21 1.21 593.27 1.31 593.34 C1.5
										 593.41 1.69 593.48 1.87 593.55 C2.02 593.65 2.19 593.67 2.36 593.7 Z" class="st26"/>
						</g>
					</g>
					<g id="shape412-201" v:mID="412" v:groupContext="shape" transform="translate(17.2492,-25.8345)">
						<title>Sheet.412</title>
						<rect x="0" y="594.526" width="0.75" height="0.75" class="st27"/>
					</g>
					<g id="shape413-203" v:mID="413" v:groupContext="shape" transform="translate(19.4992,-25.8345)">
						<title>Sheet.413</title>
						<rect x="0" y="594.526" width="0.75" height="0.75" class="st27"/>
					</g>
				</g>
				<g id="shape414-205" v:mID="414" v:groupContext="shape" transform="translate(1.59872E-14,-36.3661)">
					<title>Sheet.414</title>
					<desc>ASP.NET Core Web App</desc>
					<v:textBlock v:margins="rect(4,4,4,4)" v:tabSpace="42.5197"/>
					<v:textRect cx="51.9232" cy="578.026" width="103.85" height="34.5"/>
					<rect x="0" y="560.776" width="103.846" height="34.5" class="st9"/>
					<text x="9.93" y="575.03" class="st28" v:langID="1033"><v:paragraph v:horizAlign="1"/><v:tabList/>ASP.NET Core Web <tspan
								x="42.82" dy="1.2em" class="st8">App</tspan></text>				</g>
			</g>
		</g>
		<g id="shape636-209" v:mID="636" v:groupContext="shape" transform="translate(113.386,837.638) rotate(180)">
			<title>Sheet.636</title>
			<path d="M0 595.28 L48.19 595.28" class="st1"/>
		</g>
		<g id="shape637-212" v:mID="637" v:groupContext="shape" transform="translate(113.377,1063.73) rotate(180)">
			<title>Sheet.637</title>
			<path d="M0 595.28 L48.19 595.28" class="st1"/>
		</g>
		<g id="shape638-215" v:mID="638" v:groupContext="shape" transform="translate(660.472,243.78) rotate(90)">
			<title>Sheet.638</title>
			<path d="M0 595.28 L79.37 595.28" class="st1"/>
		</g>
		<g id="shape640-218" v:mID="640" v:groupContext="shape" transform="translate(660.472,323.15) rotate(90)">
			<title>Sheet.640</title>
			<path d="M0 595.28 L144.57 595.28" class="st1"/>
		</g>
		<g id="shape643-221" v:mID="643" v:groupContext="shape" transform="translate(107.717,-229.606)">
			<title>Sheet.643</title>
			<desc>Any other type of client</desc>
			<v:textBlock v:margins="rect(4,4,4,4)" v:tabSpace="42.5197"/>
			<v:textRect cx="38.2677" cy="562.677" width="76.54" height="65.1969"/>
			<rect x="0" y="530.079" width="76.5354" height="65.1969" class="st3"/>
			<text x="5.58" y="559.68" class="st6" v:langID="1033"><v:paragraph v:horizAlign="1"/><v:tabList/>Any other type <tspan
						x="20.53" dy="1.2em" class="st8">of client</tspan></text>		</g>
		<g id="shape645-225" v:mID="645" v:groupContext="shape" transform="translate(107.717,927.821) rotate(180)">
			<title>Sheet.645</title>
			<path d="M0 595.28 L18.14 595.28" class="st1"/>
		</g>
		<g id="shape650-228" v:mID="650" v:groupContext="shape" transform="translate(680.315,977.953) rotate(180)">
			<title>Sheet.650</title>
			<path d="M5.36 595.28 L5.72 595.28 L14.17 595.28" class="st31"/>
		</g>
		<g id="shape651-234" v:mID="651" v:groupContext="shape" transform="translate(680.315,980.787) rotate(180)">
			<title>Sheet.651</title>
			<path d="M0 595.28 L8.45 595.28" class="st33"/>
		</g>
		<g id="shape652-240" v:mID="652" v:groupContext="shape" transform="translate(680.315,885.827) rotate(180)">
			<title>Sheet.652</title>
			<path d="M5.36 595.28 L5.72 595.28 L14.17 595.28" class="st31"/>
		</g>
		<g id="shape653-245" v:mID="653" v:groupContext="shape" transform="translate(680.315,888.661) rotate(180)">
			<title>Sheet.653</title>
			<path d="M0 595.28 L8.45 595.28" class="st33"/>
		</g>
		<g id="shape654-250" v:mID="654" v:groupContext="shape" transform="translate(680.315,932.598) rotate(180)">
			<title>Sheet.654</title>
			<path d="M5.36 595.28 L5.72 595.28 L14.17 595.28" class="st31"/>
		</g>
		<g id="shape655-255" v:mID="655" v:groupContext="shape" transform="translate(680.315,935.433) rotate(180)">
			<title>Sheet.655</title>
			<path d="M0 595.28 L8.45 595.28" class="st33"/>
		</g>
		<g id="shape656-260" v:mID="656" v:groupContext="shape" transform="translate(680.315,1020.47) rotate(180)">
			<title>Sheet.656</title>
			<path d="M5.36 595.28 L5.72 595.28 L14.17 595.28" class="st31"/>
		</g>
		<g id="shape657-265" v:mID="657" v:groupContext="shape" transform="translate(680.315,1023.31) rotate(180)">
			<title>Sheet.657</title>
			<path d="M0 595.28 L8.45 595.28" class="st33"/>
		</g>
		<g id="shape658-270" v:mID="658" v:groupContext="shape" transform="translate(680.315,1070.08) rotate(180)">
			<title>Sheet.658</title>
			<path d="M5.36 595.28 L5.72 595.28 L14.17 595.28" class="st31"/>
		</g>
		<g id="shape659-275" v:mID="659" v:groupContext="shape" transform="translate(680.315,1072.91) rotate(180)">
			<title>Sheet.659</title>
			<path d="M0 595.28 L8.45 595.28" class="st33"/>
		</g>
		<g id="shape1024-280" v:mID="1024" v:groupContext="shape" transform="translate(542.835,-85.3382)">
			<title>Sheet.1024</title>
			<desc>&#62;= .NET 8</desc>
			<v:textBlock v:margins="rect(4,4,4,4)" v:tabSpace="42.5197"/>
			<v:textRect cx="35.4331" cy="584.086" width="70.87" height="22.3784"/>
			<rect x="0" y="572.897" width="70.8661" height="22.3784" class="st34"/>
			<text x="13.18" y="587.09" class="st28" v:langID="1033"><v:paragraph v:horizAlign="1"/><v:tabList/>&#62;= .NET 8</text>		</g>
		<g id="group1028-283" transform="translate(143.15,-442.205)" v:mID="1028" v:groupContext="group">
			<title>Sheet.1028</title>
			<g id="shape1010-284" v:mID="1010" v:groupContext="shape" transform="translate(0.23622,0)">
				<title>Sheet.1010</title>
				<path d="M0 595.28 L331.42 595.28 L331.42 471.54 L0 471.54 L0 595.28 Z" class="st35"/>
			</g>
			<g id="shape1011-286" v:mID="1011" v:groupContext="shape" transform="translate(-6.39488E-14,-101.354)">
				<title>Sheet.1011</title>
				<desc>Identity</desc>
				<v:textBlock v:margins="rect(4,4,4,4)" v:tabSpace="42.5197"/>
				<v:textRect cx="26.2205" cy="584.086" width="52.45" height="22.3784"/>
				<rect x="0" y="572.897" width="52.4409" height="22.3784" class="st34"/>
				<text x="9.48" y="587.09" class="st28" v:langID="1033"><v:paragraph v:horizAlign="1"/><v:tabList/>Identity</text>			</g>
			<g id="group1022-289" transform="translate(221.102,-17.0079)" v:mID="1022" v:groupContext="group">
				<title>Sheet.1022</title>
				<g id="shape554-290" v:mID="554" v:groupContext="shape">
					<title>Sheet.554</title>
					<rect x="0" y="515.906" width="90.7087" height="79.3701" class="st34"/>
				</g>
				<g id="group1007-292" transform="translate(33.3071,-12.969)" v:mID="1007" v:groupContext="group">
					<title>Sheet.1007</title>
					<g id="shape145-293" v:mID="145" v:groupContext="shape" transform="translate(4.33653,0)">
						<title>Sheet.145</title>
						<path d="M11.57 590.46 L10.98 590.46 L5.25 590.46 L4.95 590.46 C5.74 593.35 4.68 593.76 0 593.76 L0 595.28
									 L5.95 595.28 L10.29 595.28 L15.9 595.28 L15.9 593.76 C11.23 593.76 10.77 593.35 11.56 590.46
									 L11.57 590.46 Z" class="st13"/>
						<path d="M11.57 590.46 L10.98 590.46 L5.25 590.46 L4.95 590.46 C5.74 593.35 4.68 593.76 0 593.76 L0 595.28
									 L5.95 595.28 L10.29 595.28 L15.9 595.28 L15.9 593.76 C11.23 593.76 10.77 593.35 11.56 590.46"
								class="st14"/>
					</g>
					<g id="shape146-296" v:mID="146" v:groupContext="shape" transform="translate(0.00048189,-4.33749)">
						<title>Sheet.146</title>
						<path d="M22.64 577.45 L1.31 577.45 C0.58 577.45 0 578.09 0 578.82 L0 593.92 C0 594.63 0.58 595.28 1.31 595.28
									 L22.64 595.28 C23.36 595.28 24.09 594.63 24.09 593.92 L24.09 578.82 C24.09 578.09 23.36 577.45
									 22.64 577.45 Z" class="st15"/>
					</g>
					<g id="shape147-298" v:mID="147" v:groupContext="shape" transform="translate(-2.79776E-14,-4.33701)">
						<title>Sheet.147</title>
						<path d="M22.65 577.45 C22.65 577.45 22.64 577.45 22.64 577.45 L1.31 577.45 C0.58 577.45 0 578.09 0 578.82
									 L0 593.91 C0 594.63 0.58 595.28 1.31 595.28 L1.82 595.28 L22.65 577.45 Z" class="st16"/>
					</g>
					<g id="shape148-300" v:mID="148" v:groupContext="shape" transform="translate(1.92708,-6.26457)">
						<title>Sheet.148</title>
						<rect x="0" y="581.301" width="20.2394" height="13.9748" class="st17"/>
					</g>
					<g id="shape149-302" v:mID="149" v:groupContext="shape" transform="translate(4.33653,-1.13687E-13)">
						<title>Sheet.149</title>
						<rect x="0" y="593.83" width="15.9024" height="1.44567" class="st15"/>
					</g>
					<g id="shape150-304" v:mID="150" v:groupContext="shape" transform="translate(11.6126,-20.8152)">
						<title>Sheet.150</title>
						<path d="M0.68 594.93 C0.68 595.12 0.53 595.28 0.34 595.28 C0.15 595.28 0 595.12 0 594.93 C0 594.74 0.15
									 594.59 0.34 594.59 C0.53 594.59 0.68 594.74 0.68 594.93 Z" class="st18"/>
					</g>
					<g id="shape151-306" v:mID="151" v:groupContext="shape" transform="translate(7.68952,-13.7849)">
						<title>Sheet.151</title>
						<path d="M4.37 595.28 C4.35 595.28 4.33 595.27 4.31 595.26 L0.06 592.81 C0.02 592.79 0 592.74 0 592.7 C0
									 592.65 0.02 592.61 0.06 592.59 L4.28 590.15 C4.32 590.13 4.37 590.13 4.41 590.15 L8.65 592.6
									 C8.69 592.63 8.71 592.67 8.71 592.71 C8.71 592.76 8.69 592.8 8.65 592.82 L4.44 595.26 C4.42
									 595.27 4.39 595.28 4.37 595.28 Z" class="st36"/>
					</g>
					<g id="shape152-308" v:mID="152" v:groupContext="shape" transform="translate(7.09053,-7.83264)">
						<title>Sheet.152</title>
						<path d="M4.36 595.28 C4.34 595.28 4.31 595.27 4.3 595.26 L0.07 592.82 C0.02 592.79 0 592.75 0 592.71 L0
									 587.81 C0 587.76 0.02 587.72 0.07 587.7 C0.1 587.67 0.15 587.67 0.19 587.7 L4.42 590.14 C4.46
									 590.16 4.49 590.2 4.49 590.25 L4.49 595.15 C4.49 595.19 4.46 595.24 4.42 595.26 C4.4 595.27
									 4.38 595.28 4.36 595.28 Z" class="st37"/>
					</g>
					<g id="shape153-310" v:mID="153" v:groupContext="shape" transform="translate(12.5195,-7.83264)">
						<title>Sheet.153</title>
						<path d="M0.13 595.28 C0.11 595.28 0.08 595.27 0.06 595.26 C0.02 595.24 0 595.19 0 595.15 L0 590.28 C0 590.23
									 0.02 590.19 0.06 590.17 L4.29 587.73 C4.33 587.7 4.38 587.7 4.42 587.73 C4.46 587.75 4.48 587.79
									 4.48 587.84 L4.48 592.71 C4.48 592.75 4.46 592.79 4.42 592.82 L0.19 595.26 C0.17 595.27 0.15
									 595.28 0.13 595.28 Z" class="st38"/>
					</g>
				</g>
				<g id="shape1021-312" v:mID="1021" v:groupContext="shape" transform="translate(7.08661,-35.1359)">
					<title>Sheet.1021</title>
					<desc>Duende IdentityServer</desc>
					<v:textBlock v:margins="rect(4,4,4,4)" v:tabSpace="42.5197"/>
					<v:textRect cx="38.2677" cy="576.526" width="76.54" height="37.5"/>
					<rect x="0" y="557.776" width="76.5354" height="37.5" class="st9"/>
					<text x="20.93" y="572.33" class="st28" v:langID="1033"><v:paragraph v:horizAlign="1"/><v:tabList/>Duende<v:newlineChar/><tspan
								x="7.77" dy="1.38em" class="st8">IdentityServer</tspan></text>				</g>
			</g>
			<g id="shape1026-316" v:mID="1026" v:groupContext="shape" transform="translate(164.764,-45.5037)">
				<title>Sheet.1026</title>
				<desc>OR</desc>
				<v:textBlock v:margins="rect(4,4,4,4)" v:tabSpace="42.5197"/>
				<v:textRect cx="12.5411" cy="584.086" width="25.09" height="22.3784"/>
				<rect x="0" y="572.897" width="25.0823" height="22.3784" class="st34"/>
				<text x="5.78" y="587.09" class="st28" v:langID="1033"><v:paragraph v:horizAlign="1"/><v:tabList/>OR</text>			</g>
			<g id="group1027-319" transform="translate(14.1732,-6.49606)" v:mID="1027" v:groupContext="group">
				<title>Sheet.1027</title>
				<g id="shape1009-320" v:mID="1009" v:groupContext="shape">
					<title>Sheet.1009</title>
					<desc>Microsoft Entra ID or Microsoft Entra External ID</desc>
					<v:textBlock v:margins="rect(4,4,4,4)" v:tabSpace="42.5197"/>
					<v:textRect cx="76.5354" cy="567.18" width="153.08" height="56.1908"/>
					<rect x="0" y="539.085" width="153.071" height="56.1908" class="st9"/>
					<text x="36.64" y="558.18" class="st6" v:langID="1033"><v:paragraph v:horizAlign="1"/><v:tabList/>Microsoft Entra ID<v:newlineChar/><tspan
								x="71.87" dy="1.2em" class="st8">or<v:newlineChar/></tspan><tspan x="17.81" dy="1.2em" class="st8">Microsoft Entra External ID</tspan></text>				</g>
				<g id="group1012-325" transform="translate(57.7854,-55.0097)" v:mID="1012" v:groupContext="group">
					<title>Sheet.1012</title>
					<g id="shape1013-326" v:mID="1013" v:groupContext="shape" transform="translate(8.1861,0)">
						<title>Sheet.1013</title>
						<path d="M0 589.24 C0.79 589.74 2.1 590.28 3.49 590.28 C4.75 590.28 5.92 589.92 6.89 589.29 C6.89 589.29
									 6.89 589.29 6.9 589.29 L10.56 587 L10.56 595.28 C9.98 595.28 9.4 595.12 8.89 594.8 L0 589.24
									 Z" class="st39"/>
					</g>
					<g id="shape1014-328" v:mID="1014" v:groupContext="shape" transform="translate(0,-4.99336)">
						<title>Sheet.1014</title>
						<path d="M16.42 568.78 L1.18 585.98 C0 587.3 0.31 589.31 1.83 590.27 C1.83 590.27 7.47 593.79 8.19 594.24
									 C8.97 594.73 10.29 595.28 11.67 595.28 C12.93 595.28 14.11 594.91 15.08 594.29 C15.08 594.29
									 15.08 594.29 15.08 594.28 L18.75 591.99 L9.88 586.45 L18.75 576.44 L18.75 567.75 C18.75 567.75
									 18.75 567.75 18.75 567.75 C17.89 567.75 17.03 568.1 16.42 568.78 L16.42 568.78 Z" class="st40"/>
					</g>
					<g id="shape1015-330" v:mID="1015" v:groupContext="shape" transform="translate(9.88104,-8.27756)">
						<title>Sheet.1015</title>
						<path d="M0 589.73 L0.11 589.8 L8.87 595.28 L8.87 595.28 L8.87 579.73 L8.87 579.72 L0 589.73 Z"
								class="st41"/>
					</g>
					<g id="shape1016-332" v:mID="1016" v:groupContext="shape" transform="translate(18.752,-0.0020323)">
						<title>Sheet.1016</title>
						<path d="M16.91 585.27 C18.44 584.32 18.75 582.31 17.57 580.98 L7.57 569.7 C6.76 569.33 5.86 569.11 4.9 569.11
									 C3.02 569.11 1.34 569.92 0.22 571.2 L0 571.45 C0 571.45 8.87 581.45 8.87 581.45 C8.87 581.45
									 8.87 581.45 8.87 581.45 L0 587 L0 595.28 C0.58 595.28 1.16 595.12 1.67 594.8 L16.91 585.27 L16.91
									 585.27 Z" class="st42"/>
					</g>
					<g id="shape1017-334" v:mID="1017" v:groupContext="shape" transform="translate(18.75,-23.8287)">
						<title>Sheet.1017</title>
						<path d="M0 586.59 L0 595.28 C0 595.28 0.22 595.03 0.22 595.03 C1.34 593.75 3.02 592.94 4.9 592.94 C5.86
									 592.94 6.76 593.16 7.57 593.53 L2.33 587.62 C1.72 586.93 0.86 586.59 0 586.59 L0 586.59 Z"
								class="st43"/>
					</g>
					<g id="shape1018-336" v:mID="1018" v:groupContext="shape" transform="translate(18.752,-8.27959)">
						<title>Sheet.1018</title>
						<path d="M8.87 589.73 L0 579.73 L0 595.28 L8.87 589.73 Z" class="st44"/>
					</g>
				</g>
			</g>
		</g>
		<g id="shape1029-338" v:mID="1029" v:groupContext="shape" transform="translate(413.858,-85.3382)">
			<title>Sheet.1029</title>
			<desc>Orleans Cluster</desc>
			<v:textBlock v:margins="rect(4,4,4,4)" v:tabSpace="42.5197"/>
			<v:textRect cx="60.4272" cy="584.086" width="120.86" height="22.3784"/>
			<rect x="0" y="572.897" width="120.854" height="22.3784" class="st34"/>
			<text x="26.92" y="587.09" class="st28" v:langID="1033"><v:paragraph v:horizAlign="1"/><v:tabList/>Orleans Cluster</text>		</g>
		<g id="shape1033-341" v:mID="1033" v:groupContext="shape" transform="translate(671.89,-557.276)">
			<title>Sheet.1033</title>
			<desc>AuthZI for Microsoft Orleans</desc>
			<v:textBlock v:margins="rect(4,4,4,4)" v:tabSpace="42.5197"/>
			<v:textRect cx="76" cy="585.276" width="152.01" height="20"/>
			<rect x="0" y="575.276" width="152" height="20" class="st34"/>
			<text x="6.29" y="588.88" class="st45" v:langID="1033"><v:paragraph v:horizAlign="1"/><v:tabList/>AuthZI for Microsoft Orleans</text>		</g>
		<g id="shape1034-344" v:mID="1034" v:groupContext="shape" transform="translate(328.819,-300.472)">
			<title>Sheet.1034</title>
			<desc>AuthZI</desc>
			<v:textBlock v:margins="rect(4,4,4,4)" v:tabSpace="42.5197"/>
			<v:textRect cx="20.7122" cy="584.086" width="41.43" height="22.3784"/>
			<rect x="0" y="572.897" width="41.4244" height="22.3784" class="st34"/>
			<text x="5.95" y="587.09" class="st28" v:langID="1033"><v:paragraph v:horizAlign="1"/><v:tabList/>AuthZI</text>		</g>
		<g id="shape1035-347" v:mID="1035" v:groupContext="shape" transform="translate(267.714,876.688) rotate(-161.611)">
			<title>Sheet.1035</title>
			<path d="M0 595.28 L89.85 595.28" class="st1"/>
		</g>
		<g id="shape1036-350" v:mID="1036" v:groupContext="shape" transform="translate(238.11,952.441) rotate(180)">
			<title>Sheet.1036</title>
			<path d="M0 595.28 L53.86 595.28" class="st1"/>
		</g>
		<g id="shape1037-353" v:mID="1037" v:groupContext="shape" transform="translate(328.819,-210.063)">
			<title>Sheet.1037</title>
			<desc>AuthZI</desc>
			<v:textBlock v:margins="rect(4,4,4,4)" v:tabSpace="42.5197"/>
			<v:textRect cx="20.7122" cy="584.086" width="41.43" height="22.3784"/>
			<rect x="0" y="572.897" width="41.4244" height="22.3784" class="st34"/>
			<text x="5.95" y="587.09" class="st28" v:langID="1033"><v:paragraph v:horizAlign="1"/><v:tabList/>AuthZI</text>		</g>
		<g id="shape1038-356" v:mID="1038" v:groupContext="shape" transform="translate(175.956,945.078) rotate(-151.99)">
			<title>Sheet.1038</title>
			<path d="M0 595.28 L96.58 595.28" class="st1"/>
		</g>
		<g id="shape1039-359" v:mID="1039" v:groupContext="shape" transform="translate(328.819,-119.205)">
			<title>Sheet.1039</title>
			<desc>AuthZI</desc>
			<v:textBlock v:margins="rect(4,4,4,4)" v:tabSpace="42.5197"/>
			<v:textRect cx="20.7122" cy="584.086" width="41.43" height="22.3784"/>
			<rect x="0" y="572.897" width="41.4244" height="22.3784" class="st34"/>
			<text x="5.95" y="587.09" class="st28" v:langID="1033"><v:paragraph v:horizAlign="1"/><v:tabList/>AuthZI</text>		</g>
		<g id="shape1040-362" v:mID="1040" v:groupContext="shape" transform="translate(735.06,945.078) rotate(151.99)">
			<title>Sheet.1040</title>
			<path d="M0 595.28 L96.58 595.28" class="st1"/>
		</g>
		<g id="shape1041-365" v:mID="1041" v:groupContext="shape" transform="translate(238.11,901.417) rotate(180)">
			<title>Sheet.1041</title>
			<path d="M0 595.28 L53.86 595.28" class="st1"/>
		</g>
		<g id="shape1042-368" v:mID="1042" v:groupContext="shape" transform="translate(238.11,1054.49) rotate(180)">
			<title>Sheet.1042</title>
			<path d="M0 595.28 L62.36 595.28" class="st1"/>
		</g>
		<g id="shape1043-371" v:mID="1043" v:groupContext="shape" transform="translate(238.11,850.394) rotate(180)">
			<title>Sheet.1043</title>
			<path d="M0 595.28 L56.69 595.28" class="st1"/>
		</g>
		<g id="shape1044-374" v:mID="1044" v:groupContext="shape" transform="translate(1060.16,153.071) rotate(90)">
			<title>Sheet.1044</title>
			<path d="M0 595.28 L255.12 595.28" class="st1"/>
		</g>
		<g id="group1048-377" transform="translate(474.421,-243.78)" v:mID="1048" v:groupContext="group">
			<title>Sheet.1048</title>
			<g id="shape1049-378" v:mID="1049" v:groupContext="shape">
				<title>Sheet.1049</title>
				<rect x="0" y="524.004" width="120.854" height="71.2711" class="st12"/>
			</g>
			<g id="group1050-380" transform="translate(41.6772,-6.07424)" v:mID="1050" v:groupContext="group">
				<title>Sheet.1050</title>
				<g id="shape1051-381" v:mID="1051" v:groupContext="shape" transform="translate(6.74925,1.13687E-13)">
					<title>Sheet.1051</title>
					<path d="M18 587.78 L17.09 587.78 L8.17 587.78 L7.7 587.78 C8.94 592.27 7.28 592.92 0 592.92 L0 595.28 L9.26
								 595.28 L16.01 595.28 L24.75 595.28 L24.75 592.92 C17.47 592.92 16.76 592.28 18 587.78 L18 587.78
								 Z" class="st13"/>
					<path d="M18 587.78 L17.09 587.78 L8.17 587.78 L7.7 587.78 C8.94 592.27 7.28 592.92 0 592.92 L0 595.28 L9.26
								 595.28 L16.01 595.28 L24.75 595.28 L24.75 592.92 C17.47 592.92 16.76 592.28 18 587.78"
							class="st14"/>
				</g>
				<g id="shape1052-384" v:mID="1052" v:groupContext="shape" transform="translate(0.00075,-6.75075)">
					<title>Sheet.1052</title>
					<path d="M35.23 567.53 L2.04 567.53 C0.91 567.53 0 568.54 0 569.66 L0 593.16 C0 594.28 0.91 595.28 2.04 595.28
								 L35.23 595.28 C36.36 595.28 37.5 594.28 37.5 593.16 L37.5 569.66 C37.5 568.53 36.36 567.53 35.23
								 567.53 Z" class="st15"/>
				</g>
				<g id="shape1053-386" v:mID="1053" v:groupContext="shape" transform="translate(0,-6.75)">
					<title>Sheet.1053</title>
					<path d="M35.26 567.53 C35.25 567.53 35.24 567.53 35.23 567.53 L2.04 567.53 C0.91 567.53 0 568.53 0 569.66 L0
								 593.16 C0 594.28 0.91 595.28 2.04 595.28 L2.83 595.28 L35.26 567.53 Z" class="st16"/>
				</g>
				<g id="shape1054-388" v:mID="1054" v:groupContext="shape" transform="translate(2.99925,-9.75)">
					<title>Sheet.1054</title>
					<rect x="0" y="573.526" width="31.5" height="21.75" class="st17"/>
				</g>
				<g id="shape1055-390" v:mID="1055" v:groupContext="shape" transform="translate(6.74925,0)">
					<title>Sheet.1055</title>
					<rect x="0" y="593.026" width="24.75" height="2.25" class="st15"/>
				</g>
				<g id="shape1056-392" v:mID="1056" v:groupContext="shape" transform="translate(18.0735,-32.3962)">
					<title>Sheet.1056</title>
					<path d="M1.06 594.74 C1.06 595.04 0.83 595.28 0.53 595.28 C0.24 595.28 0 595.04 0 594.74 C0 594.45 0.24 594.21
								 0.53 594.21 C0.83 594.21 1.06 594.45 1.06 594.74 Z" class="st18"/>
				</g>
				<g id="group1057-394" transform="translate(11.0047,-11.2125)" v:mID="1057" v:groupContext="group">
					<title>Layer_2</title>
					<g id="shape1058-395" v:mID="1058" v:groupContext="shape" transform="translate(8.16225,-14.178)">
						<title>Sheet.1058</title>
						<path d="M0.86 595.04 L0.48 595.28 L0.14 594.67 C0.02 594.44 0 594.24 0.09 594.04 C0.16 593.86 0.31 593.75
									 0.5 593.75 L0.55 593.76 C0.76 593.77 0.98 593.99 1.04 594.19 C1.11 594.4 1.11 594.89 0.86 595.04
									 Z" class="st19"/>
					</g>
					<g id="shape1059-397" v:mID="1059" v:groupContext="shape" transform="translate(3.39225,-1.81125)">
						<title>Sheet.1059</title>
						<path d="M1.9 594.31 C1.9 594.29 0 591.24 0.11 590.71 C1.01 586.46 2.07 585.84 2.46 584.94 C2.85 584.04 2.63
									 583.21 3.09 583.2 C3.56 583.19 4.93 583.29 5.26 583.4 C5.59 583.51 6.06 583.85 6.33 584.58 C6.68
									 585.25 7.03 585.93 7.14 586.69 C7.15 586.76 7.18 586.83 7.23 586.88 C8.11 587.86 8.29 589.04
									 8.23 590.29 C8.21 590.61 8.17 591.08 8.13 591.24 C8.09 591.41 6.89 595.28 5.01 595.23 C3.12
									 595.18 2.12 594.48 1.9 594.31 Z" class="st20"/>
					</g>
					<g id="shape1060-399" v:mID="1060" v:groupContext="shape" transform="translate(10.353,-0.1305)">
						<title>Sheet.1060</title>
						<path d="M5.06 591.73 C4.37 591.69 4.01 591.28 4.01 590.88 C4 590.42 4.2 589.84 3.53 589.78 C2.86 589.72
									 1.48 589.65 1.11 589.58 C0.31 589.43 0.27 589.76 0.26 589.99 C0.25 590.1 0.35 591.19 0.25 591.62
									 C0.25 591.8 0.24 591.98 0.21 592.17 C0.14 592.66 0.08 593.16 0.01 593.66 C0.01 593.9 0 594.14
									 0 594.38 C0.58 595.24 1.72 595.28 2.42 594.53 C3.08 593.86 3.88 593.4 4.72 592.99 C4.95 592.88
									 5.18 592.7 5.3 592.37 C5.43 592.03 5.31 591.74 5.06 591.73 Z" class="st21"/>
					</g>
					<g id="shape1061-401" v:mID="1061" v:groupContext="shape" transform="translate(2.29725,-3.219)">
						<title>Sheet.1061</title>
						<path d="M3.95 594.4 C3.86 594.87 3.36 595.28 3.1 595.24 C2.94 595.15 2.5 594.57 2.4 594.43 C2.12 594 0.87
									 592.21 0.51 592.35 C0.39 592.36 0.32 592.44 0.26 592.53 C0.24 592.54 0.21 592.55 0.19 592.56
									 C0 592.16 0.01 591.76 0.22 591.38 C0.68 590.54 0.9 589.67 1.13 588.74 C1.21 588.43 1.4 588.17
									 1.6 587.92 C1.97 587.45 1.96 586.98 2.33 586.51 C2.57 586.22 2.79 585.9 2.76 585.52 C2.7 584.44
									 2.56 583.39 2.61 582.31 C2.65 581.25 3.58 580.36 4.61 579.98 C5.69 579.59 6.71 579.78 7.57 580.55
									 C8.25 581.16 8.55 581.96 8.6 582.86 C8.61 583.02 8.62 583.19 8.61 583.35 C8.53 585.04 9.24 586.41
									 10.32 587.63 C11.35 588.81 11.75 590.21 11.84 591.74 C11.87 592.13 11.74 592.5 11.58 592.86
									 C11.35 593.38 11.03 593.7 10.73 593.83 C10.44 593.97 9.27 594.06 9.5 593.29 C9.61 592.92 9.63
									 592.76 9.16 592.66 C9.2 592.35 9.25 592.03 9.26 591.72 C9.33 590.46 9.11 589.47 8.16 588.58
									 C7.87 588.31 8.14 588.26 8.13 588.02 C8.11 587.35 7.72 586.67 7.36 586 C7.33 585.88 7.27 585.77
									 7.19 585.67 C7.22 585.57 7.15 585.49 7.11 585.41 C7.16 585.19 7.25 584.99 7.21 584.76 C7.21
									 584.57 5.21 584.48 4.96 584.58 C4.86 584.55 3.79 584.5 3.79 584.52 C3.65 584.63 3.55 584.77
									 3.5 584.94 C3.46 585.1 3.72 585.44 3.75 585.49 C3.73 585.72 3.72 585.95 3.71 586.18 C3.69 586.26
									 3.67 586.34 3.64 586.42 C3.47 586.68 3.3 586.94 3.13 587.21 C2.99 587.45 2.82 587.68 2.8 587.98
									 C2.68 588.28 3.1 588.67 2.72 589.02 C2.34 589.37 1.96 591.06 1.95 591.46 C1.95 591.88 2.73 592.86
									 3.03 593.14 C3.57 593.66 4.07 593.86 3.95 594.4 Z" class="st22"/>
					</g>
					<g id="shape1062-403" v:mID="1062" v:groupContext="shape" transform="translate(5.874,-1.032)">
						<title>Sheet.1062</title>
						<path d="M0 593.82 C0.81 594.05 3.08 594.12 4.18 593.01 C4.37 592.84 4.55 592.68 4.74 592.51 C4.74 592.69
									 4.73 592.87 4.7 593.06 C4.63 593.55 4.57 594.05 4.5 594.55 C4.5 594.79 4.49 595.03 4.49 595.28
									 C3.47 595 1.95 594.9 1.49 594.92 C1.04 594.94 0.41 595.06 0.05 595.15 L0 593.82 Z"
								class="st22"/>
					</g>
					<g id="shape1063-405" v:mID="1063" v:groupContext="shape" transform="translate(14.3708,-4.3995)">
						<title>Sheet.1063</title>
						<path d="M0.05 595.28 C0.03 595.25 0.02 595.23 0 595.2 C0.02 595.23 0.03 595.25 0.05 595.28 Z" class="st23"/>
					</g>
					<g id="shape1064-407" v:mID="1064" v:groupContext="shape" transform="translate(14.0595,-5.45025)">
						<title>Sheet.1064</title>
						<path d="M0.07 595.28 C0.04 595.25 0.02 595.23 0 595.21 C0.02 595.23 0.04 595.25 0.07 595.28 Z"
								class="st23"/>
					</g>
					<g id="shape1065-409" v:mID="1065" v:groupContext="shape" transform="translate(5.41125,-3.108)">
						<title>Sheet.1065</title>
						<path d="M0 595.22 C0.01 595.24 0.02 595.26 0.03 595.28 C0.02 595.26 0.01 595.24 0 595.22 Z" class="st24"/>
					</g>
					<g id="shape1066-411" v:mID="1066" v:groupContext="shape" transform="translate(14.0595,-5.51175)">
						<title>Sheet.1066</title>
						<path d="M0 595.27 L0 595.28 L0 595.28 L0 595.27 Z" class="st25"/>
					</g>
					<g id="shape1067-413" v:mID="1067" v:groupContext="shape">
						<title>Sheet.1067</title>
						<path d="M5.08 591.63 C4.49 591.02 4.04 590.28 3.62 589.45 C3.41 589.01 2.74 588.66 2.49 589.35 C2.24 590.03
									 1.85 590.31 1.2 590.23 C0.73 590.16 0.28 590.53 0.48 591.13 C0.69 591.77 0.94 592.28 0.47 592.73
									 C0 593.18 0.19 593.65 0.85 593.74 C1.51 593.82 3.24 594.22 4.24 594.75 C5.24 595.28 6.04 594.28
									 6.15 593.98 C6.41 593.25 5.67 592.24 5.08 591.63 Z" class="st21"/>
					</g>
					<g id="shape1068-415" v:mID="1068" v:groupContext="shape" transform="translate(5.235,-10.8165)">
						<title>Sheet.1068</title>
						<path d="M2.08 595.28 C1.51 595.28 1.14 594.74 0.87 594.28 C0.87 594.28 0 593.06 0.32 592.38 C0.36 592.29
									 0.44 592.13 1.33 591.58 L1.5 591.44 L1.66 591.36 L1.76 591.32 C1.88 591.28 2.02 591.24 2.15
									 591.24 L2.22 591.24 L2.33 591.27 L2.6 591.36 L4.77 592.16 L4.83 592.48 C4.88 592.75 4.82 592.98
									 4.76 593.16 L4.68 593.48 L4.5 593.55 C4.33 593.61 4.07 593.88 3.87 594.1 C3.66 594.32 3.47 594.53
									 3.27 594.66 C3.2 594.71 3.12 594.77 3.05 594.82 C2.74 595.06 2.44 595.28 2.08 595.28 Z"
								class="st22"/>
					</g>
					<g id="shape1069-417" v:mID="1069" v:groupContext="shape" transform="translate(5.508,-10.8712)">
						<title>Sheet.1069</title>
						<path d="M3.25 592.66 C2.87 592.99 2.43 593.28 1.88 593.29 C1.86 593.31 1.86 593.31 1.88 593.29 C1.89 593.17
									 1.88 593.05 1.77 592.96 C1.69 592.88 1.67 592.77 1.7 592.68 C1.8 592.28 1.74 591.88 1.76 591.49
									 C1.65 591.46 1.42 591.54 1.39 591.55 C1.34 591.57 1.29 591.6 1.24 591.62 C1.19 591.67 1.13 591.71
									 1.08 591.76 C1.01 591.8 0.27 592.25 0.2 592.41 C0 592.83 0.64 593.84 0.74 593.96 C1.49 595.28
									 1.9 594.7 2.61 594.21 C2.98 593.97 3.48 593.22 3.9 593.06 C3.96 592.85 4.05 592.65 4 592.42
									 C3.73 592.44 3.49 592.45 3.25 592.66 Z" class="st21"/>
					</g>
					<g id="shape1070-419" v:mID="1070" v:groupContext="shape" transform="translate(6.95175,-14.649)">
						<title>Sheet.1070</title>
						<path d="M0 595.27 C0 595.28 0 595.27 0.01 595.28 C0 595.27 0.01 595.27 0 595.27 L0 595.27 Z" class="st25"/>
					</g>
					<g id="shape1071-421" v:mID="1071" v:groupContext="shape" transform="translate(6.843,-12.4522)">
						<title>Sheet.1071</title>
						<path d="M2.36 593.7 C2.52 593.79 2.67 593.88 2.67 594.09 C2.37 594.11 2.11 594.13 1.85 594.36 C1.43 594.72
									 0.86 595.26 0.26 595.28 C0.28 595.08 0 594.8 0.08 594.46 C0.18 594.03 0.19 593.51 0.21 593.07
									 C0.48 592.96 0.74 593.06 0.99 593.14 C1.1 593.21 1.21 593.27 1.31 593.34 C1.5 593.41 1.69 593.48
									 1.87 593.55 C2.02 593.65 2.19 593.67 2.36 593.7 Z" class="st26"/>
					</g>
				</g>
				<g id="shape1072-423" v:mID="1072" v:groupContext="shape" transform="translate(17.2492,-25.8345)">
					<title>Sheet.1072</title>
					<rect x="0" y="594.526" width="0.75" height="0.75" class="st27"/>
				</g>
				<g id="shape1073-425" v:mID="1073" v:groupContext="shape" transform="translate(19.4992,-25.8345)">
					<title>Sheet.1073</title>
					<rect x="0" y="594.526" width="0.75" height="0.75" class="st27"/>
				</g>
			</g>
			<g id="shape1074-427" v:mID="1074" v:groupContext="shape" transform="translate(8.50394,-43.4089)">
				<title>Sheet.1074</title>
				<desc>Silo Host</desc>
				<v:textBlock v:margins="rect(4,4,4,4)" v:tabSpace="42.5197"/>
				<v:textRect cx="51.9232" cy="585.276" width="103.85" height="20"/>
				<rect x="0" y="575.276" width="103.846" height="20" class="st9"/>
				<text x="32.25" y="588.28" class="st28" v:langID="1033"><v:paragraph v:horizAlign="1"/><v:tabList/>Silo Host</text>			</g>
		</g>
		<g id="group1075-430" transform="translate(474.421,-141.732)" v:mID="1075" v:groupContext="group">
			<title>Sheet.1075</title>
			<g id="shape1076-431" v:mID="1076" v:groupContext="shape">
				<title>Sheet.1076</title>
				<rect x="0" y="524.004" width="120.854" height="71.2711" class="st12"/>
			</g>
			<g id="group1077-433" transform="translate(41.6772,-6.07424)" v:mID="1077" v:groupContext="group">
				<title>Sheet.1077</title>
				<g id="shape1078-434" v:mID="1078" v:groupContext="shape" transform="translate(6.74925,1.13687E-13)">
					<title>Sheet.1078</title>
					<path d="M18 587.78 L17.09 587.78 L8.17 587.78 L7.7 587.78 C8.94 592.27 7.28 592.92 0 592.92 L0 595.28 L9.26
								 595.28 L16.01 595.28 L24.75 595.28 L24.75 592.92 C17.47 592.92 16.76 592.28 18 587.78 L18 587.78
								 Z" class="st13"/>
					<path d="M18 587.78 L17.09 587.78 L8.17 587.78 L7.7 587.78 C8.94 592.27 7.28 592.92 0 592.92 L0 595.28 L9.26
								 595.28 L16.01 595.28 L24.75 595.28 L24.75 592.92 C17.47 592.92 16.76 592.28 18 587.78"
							class="st14"/>
				</g>
				<g id="shape1079-437" v:mID="1079" v:groupContext="shape" transform="translate(0.00075,-6.75075)">
					<title>Sheet.1079</title>
					<path d="M35.23 567.53 L2.04 567.53 C0.91 567.53 0 568.54 0 569.66 L0 593.16 C0 594.28 0.91 595.28 2.04 595.28
								 L35.23 595.28 C36.36 595.28 37.5 594.28 37.5 593.16 L37.5 569.66 C37.5 568.53 36.36 567.53 35.23
								 567.53 Z" class="st15"/>
				</g>
				<g id="shape1080-439" v:mID="1080" v:groupContext="shape" transform="translate(0,-6.75)">
					<title>Sheet.1080</title>
					<path d="M35.26 567.53 C35.25 567.53 35.24 567.53 35.23 567.53 L2.04 567.53 C0.91 567.53 0 568.53 0 569.66 L0
								 593.16 C0 594.28 0.91 595.28 2.04 595.28 L2.83 595.28 L35.26 567.53 Z" class="st16"/>
				</g>
				<g id="shape1081-441" v:mID="1081" v:groupContext="shape" transform="translate(2.99925,-9.75)">
					<title>Sheet.1081</title>
					<rect x="0" y="573.526" width="31.5" height="21.75" class="st17"/>
				</g>
				<g id="shape1082-443" v:mID="1082" v:groupContext="shape" transform="translate(6.74925,0)">
					<title>Sheet.1082</title>
					<rect x="0" y="593.026" width="24.75" height="2.25" class="st15"/>
				</g>
				<g id="shape1083-445" v:mID="1083" v:groupContext="shape" transform="translate(18.0735,-32.3962)">
					<title>Sheet.1083</title>
					<path d="M1.06 594.74 C1.06 595.04 0.83 595.28 0.53 595.28 C0.24 595.28 0 595.04 0 594.74 C0 594.45 0.24 594.21
								 0.53 594.21 C0.83 594.21 1.06 594.45 1.06 594.74 Z" class="st18"/>
				</g>
				<g id="group1084-447" transform="translate(11.0047,-11.2125)" v:mID="1084" v:groupContext="group">
					<title>Layer_2</title>
					<g id="shape1085-448" v:mID="1085" v:groupContext="shape" transform="translate(8.16225,-14.178)">
						<title>Sheet.1085</title>
						<path d="M0.86 595.04 L0.48 595.28 L0.14 594.67 C0.02 594.44 0 594.24 0.09 594.04 C0.16 593.86 0.31 593.75
									 0.5 593.75 L0.55 593.76 C0.76 593.77 0.98 593.99 1.04 594.19 C1.11 594.4 1.11 594.89 0.86 595.04
									 Z" class="st19"/>
					</g>
					<g id="shape1086-450" v:mID="1086" v:groupContext="shape" transform="translate(3.39225,-1.81125)">
						<title>Sheet.1086</title>
						<path d="M1.9 594.31 C1.9 594.29 0 591.24 0.11 590.71 C1.01 586.46 2.07 585.84 2.46 584.94 C2.85 584.04 2.63
									 583.21 3.09 583.2 C3.56 583.19 4.93 583.29 5.26 583.4 C5.59 583.51 6.06 583.85 6.33 584.58 C6.68
									 585.25 7.03 585.93 7.14 586.69 C7.15 586.76 7.18 586.83 7.23 586.88 C8.11 587.86 8.29 589.04
									 8.23 590.29 C8.21 590.61 8.17 591.08 8.13 591.24 C8.09 591.41 6.89 595.28 5.01 595.23 C3.12
									 595.18 2.12 594.48 1.9 594.31 Z" class="st20"/>
					</g>
					<g id="shape1087-452" v:mID="1087" v:groupContext="shape" transform="translate(10.353,-0.1305)">
						<title>Sheet.1087</title>
						<path d="M5.06 591.73 C4.37 591.69 4.01 591.28 4.01 590.88 C4 590.42 4.2 589.84 3.53 589.78 C2.86 589.72
									 1.48 589.65 1.11 589.58 C0.31 589.43 0.27 589.76 0.26 589.99 C0.25 590.1 0.35 591.19 0.25 591.62
									 C0.25 591.8 0.24 591.98 0.21 592.17 C0.14 592.66 0.08 593.16 0.01 593.66 C0.01 593.9 0 594.14
									 0 594.38 C0.58 595.24 1.72 595.28 2.42 594.53 C3.08 593.86 3.88 593.4 4.72 592.99 C4.95 592.88
									 5.18 592.7 5.3 592.37 C5.43 592.03 5.31 591.74 5.06 591.73 Z" class="st21"/>
					</g>
					<g id="shape1088-454" v:mID="1088" v:groupContext="shape" transform="translate(2.29725,-3.219)">
						<title>Sheet.1088</title>
						<path d="M3.95 594.4 C3.86 594.87 3.36 595.28 3.1 595.24 C2.94 595.15 2.5 594.57 2.4 594.43 C2.12 594 0.87
									 592.21 0.51 592.35 C0.39 592.36 0.32 592.44 0.26 592.53 C0.24 592.54 0.21 592.55 0.19 592.56
									 C0 592.16 0.01 591.76 0.22 591.38 C0.68 590.54 0.9 589.67 1.13 588.74 C1.21 588.43 1.4 588.17
									 1.6 587.92 C1.97 587.45 1.96 586.98 2.33 586.51 C2.57 586.22 2.79 585.9 2.76 585.52 C2.7 584.44
									 2.56 583.39 2.61 582.31 C2.65 581.25 3.58 580.36 4.61 579.98 C5.69 579.59 6.71 579.78 7.57 580.55
									 C8.25 581.16 8.55 581.96 8.6 582.86 C8.61 583.02 8.62 583.19 8.61 583.35 C8.53 585.04 9.24 586.41
									 10.32 587.63 C11.35 588.81 11.75 590.21 11.84 591.74 C11.87 592.13 11.74 592.5 11.58 592.86
									 C11.35 593.38 11.03 593.7 10.73 593.83 C10.44 593.97 9.27 594.06 9.5 593.29 C9.61 592.92 9.63
									 592.76 9.16 592.66 C9.2 592.35 9.25 592.03 9.26 591.72 C9.33 590.46 9.11 589.47 8.16 588.58
									 C7.87 588.31 8.14 588.26 8.13 588.02 C8.11 587.35 7.72 586.67 7.36 586 C7.33 585.88 7.27 585.77
									 7.19 585.67 C7.22 585.57 7.15 585.49 7.11 585.41 C7.16 585.19 7.25 584.99 7.21 584.76 C7.21
									 584.57 5.21 584.48 4.96 584.58 C4.86 584.55 3.79 584.5 3.79 584.52 C3.65 584.63 3.55 584.77
									 3.5 584.94 C3.46 585.1 3.72 585.44 3.75 585.49 C3.73 585.72 3.72 585.95 3.71 586.18 C3.69 586.26
									 3.67 586.34 3.64 586.42 C3.47 586.68 3.3 586.94 3.13 587.21 C2.99 587.45 2.82 587.68 2.8 587.98
									 C2.68 588.28 3.1 588.67 2.72 589.02 C2.34 589.37 1.96 591.06 1.95 591.46 C1.95 591.88 2.73 592.86
									 3.03 593.14 C3.57 593.66 4.07 593.86 3.95 594.4 Z" class="st22"/>
					</g>
					<g id="shape1089-456" v:mID="1089" v:groupContext="shape" transform="translate(5.874,-1.032)">
						<title>Sheet.1089</title>
						<path d="M0 593.82 C0.81 594.05 3.08 594.12 4.18 593.01 C4.37 592.84 4.55 592.68 4.74 592.51 C4.74 592.69
									 4.73 592.87 4.7 593.06 C4.63 593.55 4.57 594.05 4.5 594.55 C4.5 594.79 4.49 595.03 4.49 595.28
									 C3.47 595 1.95 594.9 1.49 594.92 C1.04 594.94 0.41 595.06 0.05 595.15 L0 593.82 Z"
								class="st22"/>
					</g>
					<g id="shape1090-458" v:mID="1090" v:groupContext="shape" transform="translate(14.3708,-4.3995)">
						<title>Sheet.1090</title>
						<path d="M0.05 595.28 C0.03 595.25 0.02 595.23 0 595.2 C0.02 595.23 0.03 595.25 0.05 595.28 Z" class="st23"/>
					</g>
					<g id="shape1091-460" v:mID="1091" v:groupContext="shape" transform="translate(14.0595,-5.45025)">
						<title>Sheet.1091</title>
						<path d="M0.07 595.28 C0.04 595.25 0.02 595.23 0 595.21 C0.02 595.23 0.04 595.25 0.07 595.28 Z"
								class="st23"/>
					</g>
					<g id="shape1092-462" v:mID="1092" v:groupContext="shape" transform="translate(5.41125,-3.108)">
						<title>Sheet.1092</title>
						<path d="M0 595.22 C0.01 595.24 0.02 595.26 0.03 595.28 C0.02 595.26 0.01 595.24 0 595.22 Z" class="st24"/>
					</g>
					<g id="shape1093-464" v:mID="1093" v:groupContext="shape" transform="translate(14.0595,-5.51175)">
						<title>Sheet.1093</title>
						<path d="M0 595.27 L0 595.28 L0 595.28 L0 595.27 Z" class="st25"/>
					</g>
					<g id="shape1094-466" v:mID="1094" v:groupContext="shape">
						<title>Sheet.1094</title>
						<path d="M5.08 591.63 C4.49 591.02 4.04 590.28 3.62 589.45 C3.41 589.01 2.74 588.66 2.49 589.35 C2.24 590.03
									 1.85 590.31 1.2 590.23 C0.73 590.16 0.28 590.53 0.48 591.13 C0.69 591.77 0.94 592.28 0.47 592.73
									 C0 593.18 0.19 593.65 0.85 593.74 C1.51 593.82 3.24 594.22 4.24 594.75 C5.24 595.28 6.04 594.28
									 6.15 593.98 C6.41 593.25 5.67 592.24 5.08 591.63 Z" class="st21"/>
					</g>
					<g id="shape1095-468" v:mID="1095" v:groupContext="shape" transform="translate(5.235,-10.8165)">
						<title>Sheet.1095</title>
						<path d="M2.08 595.28 C1.51 595.28 1.14 594.74 0.87 594.28 C0.87 594.28 0 593.06 0.32 592.38 C0.36 592.29
									 0.44 592.13 1.33 591.58 L1.5 591.44 L1.66 591.36 L1.76 591.32 C1.88 591.28 2.02 591.24 2.15
									 591.24 L2.22 591.24 L2.33 591.27 L2.6 591.36 L4.77 592.16 L4.83 592.48 C4.88 592.75 4.82 592.98
									 4.76 593.16 L4.68 593.48 L4.5 593.55 C4.33 593.61 4.07 593.88 3.87 594.1 C3.66 594.32 3.47 594.53
									 3.27 594.66 C3.2 594.71 3.12 594.77 3.05 594.82 C2.74 595.06 2.44 595.28 2.08 595.28 Z"
								class="st22"/>
					</g>
					<g id="shape1096-470" v:mID="1096" v:groupContext="shape" transform="translate(5.508,-10.8712)">
						<title>Sheet.1096</title>
						<path d="M3.25 592.66 C2.87 592.99 2.43 593.28 1.88 593.29 C1.86 593.31 1.86 593.31 1.88 593.29 C1.89 593.17
									 1.88 593.05 1.77 592.96 C1.69 592.88 1.67 592.77 1.7 592.68 C1.8 592.28 1.74 591.88 1.76 591.49
									 C1.65 591.46 1.42 591.54 1.39 591.55 C1.34 591.57 1.29 591.6 1.24 591.62 C1.19 591.67 1.13 591.71
									 1.08 591.76 C1.01 591.8 0.27 592.25 0.2 592.41 C0 592.83 0.64 593.84 0.74 593.96 C1.49 595.28
									 1.9 594.7 2.61 594.21 C2.98 593.97 3.48 593.22 3.9 593.06 C3.96 592.85 4.05 592.65 4 592.42
									 C3.73 592.44 3.49 592.45 3.25 592.66 Z" class="st21"/>
					</g>
					<g id="shape1097-472" v:mID="1097" v:groupContext="shape" transform="translate(6.95175,-14.649)">
						<title>Sheet.1097</title>
						<path d="M0 595.27 C0 595.28 0 595.27 0.01 595.28 C0 595.27 0.01 595.27 0 595.27 L0 595.27 Z" class="st25"/>
					</g>
					<g id="shape1098-474" v:mID="1098" v:groupContext="shape" transform="translate(6.843,-12.4522)">
						<title>Sheet.1098</title>
						<path d="M2.36 593.7 C2.52 593.79 2.67 593.88 2.67 594.09 C2.37 594.11 2.11 594.13 1.85 594.36 C1.43 594.72
									 0.86 595.26 0.26 595.28 C0.28 595.08 0 594.8 0.08 594.46 C0.18 594.03 0.19 593.51 0.21 593.07
									 C0.48 592.96 0.74 593.06 0.99 593.14 C1.1 593.21 1.21 593.27 1.31 593.34 C1.5 593.41 1.69 593.48
									 1.87 593.55 C2.02 593.65 2.19 593.67 2.36 593.7 Z" class="st26"/>
					</g>
				</g>
				<g id="shape1099-476" v:mID="1099" v:groupContext="shape" transform="translate(17.2492,-25.8345)">
					<title>Sheet.1099</title>
					<rect x="0" y="594.526" width="0.75" height="0.75" class="st27"/>
				</g>
				<g id="shape1100-478" v:mID="1100" v:groupContext="shape" transform="translate(19.4992,-25.8345)">
					<title>Sheet.1100</title>
					<rect x="0" y="594.526" width="0.75" height="0.75" class="st27"/>
				</g>
			</g>
			<g id="shape1101-480" v:mID="1101" v:groupContext="shape" transform="translate(8.50394,-43.4089)">
				<title>Sheet.1101</title>
				<desc>Silo Host</desc>
				<v:textBlock v:margins="rect(4,4,4,4)" v:tabSpace="42.5197"/>
				<v:textRect cx="51.9232" cy="585.276" width="103.85" height="20"/>
				<rect x="0" y="575.276" width="103.846" height="20" class="st9"/>
				<text x="32.25" y="588.28" class="st28" v:langID="1033"><v:paragraph v:horizAlign="1"/><v:tabList/>Silo Host</text>			</g>
		</g>
		<g id="shape1047-483" v:mID="1047" v:groupContext="shape" transform="translate(455.508,-164.708)">
			<title>Sheet.1047</title>
			<desc>AuthZI</desc>
			<v:textBlock v:margins="rect(4,4,4,4)" v:tabSpace="42.5197"/>
			<v:textRect cx="20.7122" cy="584.086" width="41.43" height="22.3784"/>
			<rect x="0" y="572.897" width="41.4244" height="22.3784" class="st34"/>
			<text x="5.95" y="587.09" class="st28" v:langID="1033"><v:paragraph v:horizAlign="1"/><v:tabList/>AuthZI</text>		</g>
		<g id="shape1046-486" v:mID="1046" v:groupContext="shape" transform="translate(455.508,-272.126)">
			<title>Sheet.1046</title>
			<desc>AuthZI</desc>
			<v:textBlock v:margins="rect(4,4,4,4)" v:tabSpace="42.5197"/>
			<v:textRect cx="20.7122" cy="584.086" width="41.43" height="22.3784"/>
			<rect x="0" y="572.897" width="41.4244" height="22.3784" class="st34"/>
			<text x="5.95" y="587.09" class="st28" v:langID="1033"><v:paragraph v:horizAlign="1"/><v:tabList/>AuthZI</text>		</g>
	</g>
</svg>
